%TF.GenerationSoftware,KiCad,Pcbnew,9.0.0*%
%TF.CreationDate,2026-05-03T15:48:22+02:00*%
%TF.ProjectId,Good_Boy_Limiter,476f6f64-5f42-46f7-995f-4c696d697465,rev?*%
%TF.SameCoordinates,Original*%
%TF.FileFunction,Soldermask,Bot*%
%TF.FilePolarity,Negative*%
%FSLAX46Y46*%
G04 Gerber Fmt 4.6, Leading zero omitted, Abs format (unit mm)*
G04 Created by KiCad (PCBNEW 9.0.0) date 2026-05-03 15:48:22*
%MOMM*%
%LPD*%
G01*
G04 APERTURE LIST*
G04 Aperture macros list*
%AMRoundRect*
0 Rectangle with rounded corners*
0 $1 Rounding radius*
0 $2 $3 $4 $5 $6 $7 $8 $9 X,Y pos of 4 corners*
0 Add a 4 corners polygon primitive as box body*
4,1,4,$2,$3,$4,$5,$6,$7,$8,$9,$2,$3,0*
0 Add four circle primitives for the rounded corners*
1,1,$1+$1,$2,$3*
1,1,$1+$1,$4,$5*
1,1,$1+$1,$6,$7*
1,1,$1+$1,$8,$9*
0 Add four rect primitives between the rounded corners*
20,1,$1+$1,$2,$3,$4,$5,0*
20,1,$1+$1,$4,$5,$6,$7,0*
20,1,$1+$1,$6,$7,$8,$9,0*
20,1,$1+$1,$8,$9,$2,$3,0*%
G04 Aperture macros list end*
%ADD10C,2.540000*%
%ADD11C,1.651000*%
%ADD12C,2.500000*%
%ADD13C,1.800000*%
%ADD14C,1.550000*%
%ADD15C,0.800000*%
%ADD16C,6.400000*%
%ADD17R,1.700000X1.700000*%
%ADD18O,1.700000X1.700000*%
%ADD19C,0.750000*%
%ADD20O,2.000000X1.200000*%
%ADD21O,1.800000X1.200000*%
%ADD22RoundRect,0.100000X-0.100000X0.217500X-0.100000X-0.217500X0.100000X-0.217500X0.100000X0.217500X0*%
G04 APERTURE END LIST*
D10*
%TO.C,U2*%
X182245000Y-92710000D03*
X198755000Y-92710000D03*
D11*
X185420000Y-93980000D03*
X190500000Y-93980000D03*
X195580000Y-93980000D03*
%TD*%
D12*
%TO.C,CN1*%
X151170000Y-106760000D03*
X156170000Y-106760000D03*
D13*
X159170000Y-116760000D03*
X148170000Y-116760000D03*
%TD*%
D14*
%TO.C,U8*%
X131981000Y-52699000D03*
X131981000Y-50199000D03*
X131981000Y-47699000D03*
%TD*%
D15*
%TO.C,H2*%
X129680000Y-114300000D03*
X130382944Y-112602944D03*
X130382944Y-115997056D03*
X132080000Y-111900000D03*
D16*
X132080000Y-114300000D03*
D15*
X132080000Y-116700000D03*
X133777056Y-112602944D03*
X133777056Y-115997056D03*
X134480000Y-114300000D03*
%TD*%
D12*
%TO.C,CN2*%
X210780000Y-44290000D03*
X205780000Y-44290000D03*
D13*
X202780000Y-34290000D03*
X213780000Y-34290000D03*
%TD*%
D17*
%TO.C,J2*%
X187960000Y-36830000D03*
D18*
X187960000Y-34290000D03*
X190500000Y-36830000D03*
X190500000Y-34290000D03*
X193040000Y-36830000D03*
X193040000Y-34290000D03*
X195580000Y-36830000D03*
X195580000Y-34290000D03*
X198120000Y-36830000D03*
X198120000Y-34290000D03*
%TD*%
D14*
%TO.C,U11*%
X131953000Y-77837000D03*
X131953000Y-75337000D03*
X131953000Y-72837000D03*
%TD*%
D13*
%TO.C,R3*%
X165690000Y-114300000D03*
X207690000Y-114300000D03*
%TD*%
D15*
%TO.C,H3*%
X225070000Y-113872944D03*
X225772944Y-112175888D03*
X225772944Y-115570000D03*
X227470000Y-111472944D03*
D16*
X227470000Y-113872944D03*
D15*
X227470000Y-116272944D03*
X229167056Y-112175888D03*
X229167056Y-115570000D03*
X229870000Y-113872944D03*
%TD*%
D14*
%TO.C,U12*%
X131953000Y-90497000D03*
X131953000Y-87997000D03*
X131953000Y-85497000D03*
%TD*%
%TO.C,U10*%
X131981000Y-65399000D03*
X131981000Y-62899000D03*
X131981000Y-60399000D03*
%TD*%
D19*
%TO.C,USB1*%
X135509000Y-98700000D03*
X135509000Y-104500000D03*
D20*
X136009000Y-97270000D03*
X136009000Y-105930000D03*
D21*
X131829000Y-105930000D03*
X131829000Y-97270000D03*
%TD*%
D15*
%TO.C,H4*%
X225070000Y-36830000D03*
X225772944Y-35132944D03*
X225772944Y-38527056D03*
X227470000Y-34430000D03*
D16*
X227470000Y-36830000D03*
D15*
X227470000Y-39230000D03*
X229167056Y-35132944D03*
X229167056Y-38527056D03*
X229870000Y-36830000D03*
%TD*%
%TO.C,H1*%
X129252944Y-36830000D03*
X129955888Y-35132944D03*
X129955888Y-38527056D03*
X131652944Y-34430000D03*
D16*
X131652944Y-36830000D03*
D15*
X131652944Y-39230000D03*
X133350000Y-35132944D03*
X133350000Y-38527056D03*
X134052944Y-36830000D03*
%TD*%
D22*
%TO.C,C4*%
X156337000Y-41730000D03*
X156337000Y-42545000D03*
%TD*%
%TO.C,C3*%
X155067000Y-41730000D03*
X155067000Y-42545000D03*
%TD*%
M02*
