%TF.GenerationSoftware,KiCad,Pcbnew,9.0.0*%
%TF.CreationDate,2026-05-03T15:48:22+02:00*%
%TF.ProjectId,Good_Boy_Limiter,476f6f64-5f42-46f7-995f-4c696d697465,rev?*%
%TF.SameCoordinates,Original*%
%TF.FileFunction,Legend,Bot*%
%TF.FilePolarity,Positive*%
%FSLAX46Y46*%
G04 Gerber Fmt 4.6, Leading zero omitted, Abs format (unit mm)*
G04 Created by KiCad (PCBNEW 9.0.0) date 2026-05-03 15:48:22*
%MOMM*%
%LPD*%
G01*
G04 APERTURE LIST*
%ADD10C,0.200000*%
%ADD11C,0.250000*%
%ADD12C,0.150000*%
%ADD13C,0.508000*%
G04 APERTURE END LIST*
D10*
G36*
X188668891Y-40649117D02*
G01*
X187246669Y-40649117D01*
X187246669Y-39771445D01*
X187357780Y-39771445D01*
X187365432Y-39809705D01*
X187387143Y-39842125D01*
X187402310Y-39854545D01*
X187777502Y-40104673D01*
X187402310Y-40354801D01*
X187387143Y-40367221D01*
X187365432Y-40399641D01*
X187357780Y-40437901D01*
X187365352Y-40476178D01*
X187386995Y-40508643D01*
X187419415Y-40530354D01*
X187457675Y-40538006D01*
X187495952Y-40530434D01*
X187513250Y-40521211D01*
X187957780Y-40224857D01*
X188402310Y-40521211D01*
X188419608Y-40530434D01*
X188457885Y-40538006D01*
X188496145Y-40530354D01*
X188528565Y-40508643D01*
X188550208Y-40476178D01*
X188557780Y-40437901D01*
X188550128Y-40399641D01*
X188528417Y-40367221D01*
X188513250Y-40354801D01*
X188138057Y-40104673D01*
X188513250Y-39854545D01*
X188528417Y-39842125D01*
X188550128Y-39809705D01*
X188557780Y-39771445D01*
X188550208Y-39733168D01*
X188528565Y-39700703D01*
X188496145Y-39678992D01*
X188457885Y-39671340D01*
X188419608Y-39678912D01*
X188402310Y-39688135D01*
X187957780Y-39984488D01*
X187513250Y-39688135D01*
X187495952Y-39678912D01*
X187457675Y-39671340D01*
X187419415Y-39678992D01*
X187386995Y-39700703D01*
X187365352Y-39733168D01*
X187357780Y-39771445D01*
X187246669Y-39771445D01*
X187246669Y-39228021D01*
X187359701Y-39228021D01*
X187359701Y-39267039D01*
X187374633Y-39303087D01*
X187402223Y-39330677D01*
X187438271Y-39345609D01*
X187457780Y-39347530D01*
X188357780Y-39347530D01*
X188357780Y-39533244D01*
X188359701Y-39552753D01*
X188374633Y-39588801D01*
X188402223Y-39616391D01*
X188438271Y-39631323D01*
X188477289Y-39631323D01*
X188513337Y-39616391D01*
X188540927Y-39588801D01*
X188555859Y-39552753D01*
X188557780Y-39533244D01*
X188557780Y-38961816D01*
X188555859Y-38942307D01*
X188540927Y-38906259D01*
X188513337Y-38878669D01*
X188477289Y-38863737D01*
X188438271Y-38863737D01*
X188402223Y-38878669D01*
X188374633Y-38906259D01*
X188359701Y-38942307D01*
X188357780Y-38961816D01*
X188357780Y-39147530D01*
X187457780Y-39147530D01*
X187438271Y-39149451D01*
X187402223Y-39164383D01*
X187374633Y-39191973D01*
X187359701Y-39228021D01*
X187246669Y-39228021D01*
X187246669Y-38752626D01*
X188668891Y-38752626D01*
X188668891Y-40649117D01*
G37*
G36*
X196415891Y-41615434D02*
G01*
X194993669Y-41615434D01*
X194993669Y-40930054D01*
X195104780Y-40930054D01*
X195104780Y-41406244D01*
X195106701Y-41425753D01*
X195121633Y-41461801D01*
X195149223Y-41489391D01*
X195185271Y-41504323D01*
X195224289Y-41504323D01*
X195260337Y-41489391D01*
X195287927Y-41461801D01*
X195302859Y-41425753D01*
X195304780Y-41406244D01*
X195304780Y-41030054D01*
X196204780Y-41030054D01*
X196224289Y-41028133D01*
X196260337Y-41013201D01*
X196287927Y-40985611D01*
X196302859Y-40949563D01*
X196302859Y-40910545D01*
X196287927Y-40874497D01*
X196260337Y-40846907D01*
X196224289Y-40831975D01*
X196204780Y-40830054D01*
X195204780Y-40830054D01*
X195185271Y-40831975D01*
X195149223Y-40846907D01*
X195121633Y-40874497D01*
X195106701Y-40910545D01*
X195104780Y-40930054D01*
X194993669Y-40930054D01*
X194993669Y-40215768D01*
X195104780Y-40215768D01*
X195104780Y-40311006D01*
X195105752Y-40320879D01*
X195105565Y-40323514D01*
X195106352Y-40326977D01*
X195106701Y-40330515D01*
X195107712Y-40332956D01*
X195109912Y-40342629D01*
X195157532Y-40485487D01*
X195165524Y-40503387D01*
X195167878Y-40506101D01*
X195169253Y-40509420D01*
X195181689Y-40524574D01*
X195229308Y-40572192D01*
X195244461Y-40584629D01*
X195280510Y-40599560D01*
X195319528Y-40599560D01*
X195355576Y-40584629D01*
X195383166Y-40557039D01*
X195398097Y-40520991D01*
X195398097Y-40481973D01*
X195383166Y-40445924D01*
X195370729Y-40430771D01*
X195339802Y-40399843D01*
X195304780Y-40294778D01*
X195304780Y-40231995D01*
X195339802Y-40126930D01*
X195406875Y-40059858D01*
X195477780Y-40024405D01*
X195645661Y-39982435D01*
X195763899Y-39982435D01*
X195931780Y-40024405D01*
X196002686Y-40059858D01*
X196069758Y-40126930D01*
X196104780Y-40231994D01*
X196104780Y-40294779D01*
X196069758Y-40399844D01*
X196038831Y-40430771D01*
X196026395Y-40445925D01*
X196011463Y-40481973D01*
X196011463Y-40520991D01*
X196026395Y-40557039D01*
X196053985Y-40584629D01*
X196090033Y-40599561D01*
X196129051Y-40599561D01*
X196165099Y-40584629D01*
X196180253Y-40572193D01*
X196227871Y-40524574D01*
X196240308Y-40509421D01*
X196241682Y-40506101D01*
X196244038Y-40503386D01*
X196252029Y-40485486D01*
X196299648Y-40342629D01*
X196301847Y-40332956D01*
X196302859Y-40330515D01*
X196303207Y-40326977D01*
X196303995Y-40323514D01*
X196303807Y-40320879D01*
X196304780Y-40311006D01*
X196304780Y-40215768D01*
X196303807Y-40205894D01*
X196303995Y-40203260D01*
X196303207Y-40199796D01*
X196302859Y-40196259D01*
X196301847Y-40193817D01*
X196299648Y-40184145D01*
X196252029Y-40041288D01*
X196244038Y-40023388D01*
X196241682Y-40020672D01*
X196240308Y-40017354D01*
X196227872Y-40002200D01*
X196132634Y-39906962D01*
X196124963Y-39900667D01*
X196123234Y-39898673D01*
X196120226Y-39896779D01*
X196117480Y-39894526D01*
X196115040Y-39893515D01*
X196106644Y-39888230D01*
X196011406Y-39840611D01*
X196009979Y-39840065D01*
X196009399Y-39839635D01*
X196001222Y-39836713D01*
X195993098Y-39833605D01*
X195992375Y-39833553D01*
X195990938Y-39833040D01*
X195800463Y-39785421D01*
X195797081Y-39784920D01*
X195795718Y-39784356D01*
X195788367Y-39783632D01*
X195781070Y-39782553D01*
X195779611Y-39782770D01*
X195776209Y-39782435D01*
X195633352Y-39782435D01*
X195629949Y-39782770D01*
X195628491Y-39782553D01*
X195621193Y-39783632D01*
X195613843Y-39784356D01*
X195612479Y-39784920D01*
X195609098Y-39785421D01*
X195418622Y-39833040D01*
X195417183Y-39833553D01*
X195416463Y-39833605D01*
X195408338Y-39836713D01*
X195400162Y-39839635D01*
X195399582Y-39840064D01*
X195398154Y-39840611D01*
X195302917Y-39888230D01*
X195294518Y-39893516D01*
X195292081Y-39894526D01*
X195289337Y-39896777D01*
X195286326Y-39898673D01*
X195284593Y-39900670D01*
X195276927Y-39906962D01*
X195181689Y-40002200D01*
X195169253Y-40017354D01*
X195167878Y-40020672D01*
X195165524Y-40023387D01*
X195157532Y-40041287D01*
X195109912Y-40184145D01*
X195107712Y-40193817D01*
X195106701Y-40196259D01*
X195106352Y-40199796D01*
X195105565Y-40203260D01*
X195105752Y-40205894D01*
X195104780Y-40215768D01*
X194993669Y-40215768D01*
X194993669Y-39072911D01*
X195104780Y-39072911D01*
X195104780Y-39311006D01*
X195106701Y-39330515D01*
X195108076Y-39333834D01*
X195108331Y-39337420D01*
X195115338Y-39355728D01*
X195162958Y-39450966D01*
X195168242Y-39459361D01*
X195169253Y-39461801D01*
X195171506Y-39464546D01*
X195173401Y-39467557D01*
X195175397Y-39469288D01*
X195181689Y-39476955D01*
X195229308Y-39524573D01*
X195236974Y-39530865D01*
X195238707Y-39532863D01*
X195241715Y-39534756D01*
X195244461Y-39537010D01*
X195246901Y-39538020D01*
X195255298Y-39543306D01*
X195350535Y-39590925D01*
X195368844Y-39597931D01*
X195372427Y-39598185D01*
X195375748Y-39599561D01*
X195395257Y-39601482D01*
X195490495Y-39601482D01*
X195510004Y-39599561D01*
X195513324Y-39598185D01*
X195516908Y-39597931D01*
X195535216Y-39590925D01*
X195630454Y-39543306D01*
X195638850Y-39538020D01*
X195641290Y-39537010D01*
X195644036Y-39534756D01*
X195647044Y-39532863D01*
X195648773Y-39530868D01*
X195656444Y-39524574D01*
X195704062Y-39476955D01*
X195710354Y-39469288D01*
X195712352Y-39467556D01*
X195714245Y-39464547D01*
X195716499Y-39461802D01*
X195717509Y-39459361D01*
X195722795Y-39450965D01*
X195770414Y-39355728D01*
X195770960Y-39354299D01*
X195771390Y-39353720D01*
X195774311Y-39345543D01*
X195777420Y-39337419D01*
X195777471Y-39336698D01*
X195777985Y-39335260D01*
X195822941Y-39155434D01*
X195858395Y-39084527D01*
X195883063Y-39059858D01*
X195942673Y-39030054D01*
X195990697Y-39030054D01*
X196050306Y-39059859D01*
X196074975Y-39084527D01*
X196104780Y-39144137D01*
X196104780Y-39342398D01*
X196062293Y-39469859D01*
X196057946Y-39488975D01*
X196060712Y-39527895D01*
X196078162Y-39562794D01*
X196107638Y-39588359D01*
X196144654Y-39600697D01*
X196183574Y-39597931D01*
X196218473Y-39580481D01*
X196244038Y-39551005D01*
X196252029Y-39533105D01*
X196299648Y-39390248D01*
X196301847Y-39380575D01*
X196302859Y-39378134D01*
X196303207Y-39374596D01*
X196303995Y-39371133D01*
X196303807Y-39368498D01*
X196304780Y-39358625D01*
X196304780Y-39120530D01*
X196302859Y-39101021D01*
X196301483Y-39097700D01*
X196301229Y-39094117D01*
X196294223Y-39075808D01*
X196246604Y-38980571D01*
X196241318Y-38972174D01*
X196240308Y-38969734D01*
X196238054Y-38966988D01*
X196236161Y-38963980D01*
X196234163Y-38962247D01*
X196227871Y-38954581D01*
X196180253Y-38906962D01*
X196172582Y-38900667D01*
X196170853Y-38898673D01*
X196167845Y-38896779D01*
X196165099Y-38894526D01*
X196162659Y-38893515D01*
X196154263Y-38888230D01*
X196059025Y-38840611D01*
X196040717Y-38833605D01*
X196037133Y-38833350D01*
X196033813Y-38831975D01*
X196014304Y-38830054D01*
X195919066Y-38830054D01*
X195899557Y-38831975D01*
X195896236Y-38833350D01*
X195892653Y-38833605D01*
X195874344Y-38840611D01*
X195779107Y-38888230D01*
X195770710Y-38893515D01*
X195768270Y-38894526D01*
X195765524Y-38896779D01*
X195762516Y-38898673D01*
X195760783Y-38900670D01*
X195753117Y-38906963D01*
X195705498Y-38954581D01*
X195699203Y-38962251D01*
X195697209Y-38963981D01*
X195695315Y-38966988D01*
X195693062Y-38969735D01*
X195692051Y-38972174D01*
X195686766Y-38980571D01*
X195639147Y-39075809D01*
X195638601Y-39077235D01*
X195638171Y-39077816D01*
X195635249Y-39085992D01*
X195632141Y-39094117D01*
X195632089Y-39094839D01*
X195631576Y-39096277D01*
X195586619Y-39276101D01*
X195551166Y-39347008D01*
X195526497Y-39371676D01*
X195466888Y-39401482D01*
X195418864Y-39401482D01*
X195359254Y-39371677D01*
X195334583Y-39347006D01*
X195304780Y-39287399D01*
X195304780Y-39089138D01*
X195347268Y-38961677D01*
X195351615Y-38942562D01*
X195348849Y-38903642D01*
X195331400Y-38868743D01*
X195301924Y-38843178D01*
X195264908Y-38830839D01*
X195225988Y-38833605D01*
X195191089Y-38851054D01*
X195165524Y-38880530D01*
X195157532Y-38898430D01*
X195109912Y-39041288D01*
X195107712Y-39050960D01*
X195106701Y-39053402D01*
X195106352Y-39056939D01*
X195105565Y-39060403D01*
X195105752Y-39063037D01*
X195104780Y-39072911D01*
X194993669Y-39072911D01*
X194993669Y-38718943D01*
X196415891Y-38718943D01*
X196415891Y-41615434D01*
G37*
G36*
X198550797Y-41544159D02*
G01*
X198614976Y-41608338D01*
X198644780Y-41667946D01*
X198644780Y-41811208D01*
X198614976Y-41870816D01*
X198550797Y-41934995D01*
X198399137Y-41972910D01*
X198090423Y-41972910D01*
X197938764Y-41934995D01*
X197874583Y-41870814D01*
X197844780Y-41811208D01*
X197844780Y-41667945D01*
X197874583Y-41608339D01*
X197938764Y-41544158D01*
X198090423Y-41506244D01*
X198399137Y-41506244D01*
X198550797Y-41544159D01*
G37*
G36*
X198644780Y-40335018D02*
G01*
X198614975Y-40394627D01*
X198590306Y-40419295D01*
X198530697Y-40449101D01*
X198435054Y-40449101D01*
X198375444Y-40419296D01*
X198350776Y-40394627D01*
X198320971Y-40335017D01*
X198320971Y-40077673D01*
X198644780Y-40077673D01*
X198644780Y-40335018D01*
G37*
G36*
X198955891Y-43234481D02*
G01*
X197533669Y-43234481D01*
X197533669Y-42453863D01*
X197644780Y-42453863D01*
X197644780Y-43025291D01*
X197646701Y-43044800D01*
X197661633Y-43080848D01*
X197689223Y-43108438D01*
X197725271Y-43123370D01*
X197764289Y-43123370D01*
X197800337Y-43108438D01*
X197827927Y-43080848D01*
X197842859Y-43044800D01*
X197844780Y-43025291D01*
X197844780Y-42839577D01*
X198744780Y-42839577D01*
X198744850Y-42839570D01*
X198744885Y-42839577D01*
X198744986Y-42839556D01*
X198764289Y-42837656D01*
X198773437Y-42833866D01*
X198783145Y-42831925D01*
X198791285Y-42826473D01*
X198800337Y-42822724D01*
X198807336Y-42815724D01*
X198815565Y-42810214D01*
X198821001Y-42802059D01*
X198827927Y-42795134D01*
X198831714Y-42785990D01*
X198837209Y-42777749D01*
X198839110Y-42768135D01*
X198842859Y-42759086D01*
X198842859Y-42749184D01*
X198844780Y-42739473D01*
X198842859Y-42729867D01*
X198842859Y-42720068D01*
X198839069Y-42710919D01*
X198837128Y-42701212D01*
X198831676Y-42693071D01*
X198827927Y-42684020D01*
X198820927Y-42677020D01*
X198815417Y-42668792D01*
X198800410Y-42656503D01*
X198800337Y-42656430D01*
X198800304Y-42656416D01*
X198800250Y-42656372D01*
X198665634Y-42566628D01*
X198588870Y-42489864D01*
X198548509Y-42409142D01*
X198538066Y-42392551D01*
X198508589Y-42366987D01*
X198471573Y-42354648D01*
X198432653Y-42357414D01*
X198397754Y-42374863D01*
X198372190Y-42404340D01*
X198359851Y-42441356D01*
X198362617Y-42480276D01*
X198369623Y-42498584D01*
X198417242Y-42593822D01*
X198422527Y-42602218D01*
X198423538Y-42604658D01*
X198425791Y-42607404D01*
X198427685Y-42610412D01*
X198429679Y-42612141D01*
X198435974Y-42619812D01*
X198455739Y-42639577D01*
X197844780Y-42639577D01*
X197844780Y-42453863D01*
X197842859Y-42434354D01*
X197827927Y-42398306D01*
X197800337Y-42370716D01*
X197764289Y-42355784D01*
X197725271Y-42355784D01*
X197689223Y-42370716D01*
X197661633Y-42398306D01*
X197646701Y-42434354D01*
X197644780Y-42453863D01*
X197533669Y-42453863D01*
X197533669Y-41644339D01*
X197644780Y-41644339D01*
X197644780Y-41834815D01*
X197646701Y-41854324D01*
X197648076Y-41857643D01*
X197648331Y-41861229D01*
X197655338Y-41879537D01*
X197702958Y-41974775D01*
X197708242Y-41983170D01*
X197709253Y-41985610D01*
X197711506Y-41988355D01*
X197713401Y-41991366D01*
X197715397Y-41993097D01*
X197721689Y-42000764D01*
X197816927Y-42096002D01*
X197832081Y-42108438D01*
X197838949Y-42111283D01*
X197844924Y-42115710D01*
X197863384Y-42122305D01*
X198053860Y-42169924D01*
X198057241Y-42170424D01*
X198058605Y-42170989D01*
X198065955Y-42171712D01*
X198073253Y-42172792D01*
X198074711Y-42172574D01*
X198078114Y-42172910D01*
X198411447Y-42172910D01*
X198414849Y-42172574D01*
X198416308Y-42172792D01*
X198423605Y-42171712D01*
X198430956Y-42170989D01*
X198432319Y-42170424D01*
X198435701Y-42169924D01*
X198626176Y-42122305D01*
X198644637Y-42115710D01*
X198650611Y-42111283D01*
X198657480Y-42108438D01*
X198672634Y-42096002D01*
X198767872Y-42000764D01*
X198774163Y-41993097D01*
X198776161Y-41991365D01*
X198778056Y-41988353D01*
X198780308Y-41985610D01*
X198781317Y-41983172D01*
X198786604Y-41974774D01*
X198834223Y-41879537D01*
X198841229Y-41861228D01*
X198841483Y-41857644D01*
X198842859Y-41854324D01*
X198844780Y-41834815D01*
X198844780Y-41644339D01*
X198842859Y-41624830D01*
X198841483Y-41621509D01*
X198841229Y-41617926D01*
X198834223Y-41599617D01*
X198786604Y-41504380D01*
X198781317Y-41495981D01*
X198780308Y-41493544D01*
X198778056Y-41490800D01*
X198776161Y-41487789D01*
X198774163Y-41486056D01*
X198767872Y-41478390D01*
X198672634Y-41383152D01*
X198657480Y-41370716D01*
X198650611Y-41367870D01*
X198644637Y-41363444D01*
X198626176Y-41356849D01*
X198435701Y-41309230D01*
X198432319Y-41308729D01*
X198430956Y-41308165D01*
X198423605Y-41307441D01*
X198416308Y-41306362D01*
X198414849Y-41306579D01*
X198411447Y-41306244D01*
X198078114Y-41306244D01*
X198074711Y-41306579D01*
X198073253Y-41306362D01*
X198065955Y-41307441D01*
X198058605Y-41308165D01*
X198057241Y-41308729D01*
X198053860Y-41309230D01*
X197863384Y-41356849D01*
X197844924Y-41363444D01*
X197838949Y-41367870D01*
X197832081Y-41370716D01*
X197816927Y-41383152D01*
X197721689Y-41478390D01*
X197715397Y-41486056D01*
X197713401Y-41487788D01*
X197711506Y-41490798D01*
X197709253Y-41493544D01*
X197708242Y-41495983D01*
X197702958Y-41504379D01*
X197655338Y-41599617D01*
X197648331Y-41617925D01*
X197648076Y-41621510D01*
X197646701Y-41624830D01*
X197644780Y-41644339D01*
X197533669Y-41644339D01*
X197533669Y-40958164D01*
X197646701Y-40958164D01*
X197646701Y-40997182D01*
X197661633Y-41033230D01*
X197689223Y-41060820D01*
X197725271Y-41075752D01*
X197744780Y-41077673D01*
X198744780Y-41077673D01*
X198764289Y-41075752D01*
X198800337Y-41060820D01*
X198827927Y-41033230D01*
X198842859Y-40997182D01*
X198842859Y-40958164D01*
X198827927Y-40922116D01*
X198800337Y-40894526D01*
X198764289Y-40879594D01*
X198744780Y-40877673D01*
X197744780Y-40877673D01*
X197725271Y-40879594D01*
X197689223Y-40894526D01*
X197661633Y-40922116D01*
X197646701Y-40958164D01*
X197533669Y-40958164D01*
X197533669Y-39958164D01*
X197646701Y-39958164D01*
X197646701Y-39997182D01*
X197661633Y-40033230D01*
X197689223Y-40060820D01*
X197725271Y-40075752D01*
X197744780Y-40077673D01*
X198120971Y-40077673D01*
X198120971Y-40358625D01*
X198122892Y-40378134D01*
X198124267Y-40381454D01*
X198124522Y-40385038D01*
X198131528Y-40403346D01*
X198179147Y-40498584D01*
X198184432Y-40506980D01*
X198185443Y-40509420D01*
X198187696Y-40512166D01*
X198189590Y-40515174D01*
X198191584Y-40516903D01*
X198197879Y-40524574D01*
X198245498Y-40572192D01*
X198253164Y-40578484D01*
X198254897Y-40580482D01*
X198257905Y-40582375D01*
X198260651Y-40584629D01*
X198263091Y-40585639D01*
X198271488Y-40590925D01*
X198366725Y-40638544D01*
X198385034Y-40645550D01*
X198388617Y-40645804D01*
X198391938Y-40647180D01*
X198411447Y-40649101D01*
X198554304Y-40649101D01*
X198573813Y-40647180D01*
X198577133Y-40645804D01*
X198580717Y-40645550D01*
X198599025Y-40638544D01*
X198694263Y-40590925D01*
X198702659Y-40585639D01*
X198705099Y-40584629D01*
X198707845Y-40582375D01*
X198710853Y-40580482D01*
X198712582Y-40578487D01*
X198720253Y-40572193D01*
X198767871Y-40524574D01*
X198774163Y-40516907D01*
X198776161Y-40515175D01*
X198778054Y-40512166D01*
X198780308Y-40509421D01*
X198781318Y-40506980D01*
X198786604Y-40498584D01*
X198834223Y-40403347D01*
X198841229Y-40385038D01*
X198841483Y-40381454D01*
X198842859Y-40378134D01*
X198844780Y-40358625D01*
X198844780Y-39977673D01*
X198842859Y-39958164D01*
X198827927Y-39922116D01*
X198800337Y-39894526D01*
X198764289Y-39879594D01*
X198744780Y-39877673D01*
X197744780Y-39877673D01*
X197725271Y-39879594D01*
X197689223Y-39894526D01*
X197661633Y-39922116D01*
X197646701Y-39958164D01*
X197533669Y-39958164D01*
X197533669Y-39263387D01*
X197644780Y-39263387D01*
X197644780Y-39358625D01*
X197645752Y-39368498D01*
X197645565Y-39371133D01*
X197646352Y-39374596D01*
X197646701Y-39378134D01*
X197647712Y-39380575D01*
X197649912Y-39390248D01*
X197697532Y-39533106D01*
X197705524Y-39551006D01*
X197707878Y-39553720D01*
X197709253Y-39557039D01*
X197721689Y-39572193D01*
X197769308Y-39619811D01*
X197784461Y-39632248D01*
X197795019Y-39636621D01*
X197820510Y-39647180D01*
X197840019Y-39649101D01*
X198173352Y-39649101D01*
X198192861Y-39647180D01*
X198228909Y-39632248D01*
X198256499Y-39604658D01*
X198271431Y-39568610D01*
X198273352Y-39549101D01*
X198273352Y-39358625D01*
X198271431Y-39339116D01*
X198256499Y-39303068D01*
X198228909Y-39275478D01*
X198192861Y-39260546D01*
X198153843Y-39260546D01*
X198117795Y-39275478D01*
X198090205Y-39303068D01*
X198075273Y-39339116D01*
X198073352Y-39358625D01*
X198073352Y-39449101D01*
X197881441Y-39449101D01*
X197879802Y-39447462D01*
X197844780Y-39342397D01*
X197844780Y-39279614D01*
X197879802Y-39174549D01*
X197946875Y-39107477D01*
X198017780Y-39072024D01*
X198185661Y-39030054D01*
X198303899Y-39030054D01*
X198471780Y-39072024D01*
X198542686Y-39107477D01*
X198609758Y-39174549D01*
X198644780Y-39279613D01*
X198644780Y-39382637D01*
X198607718Y-39456761D01*
X198600712Y-39475069D01*
X198597946Y-39513989D01*
X198610285Y-39551005D01*
X198635849Y-39580482D01*
X198670748Y-39597931D01*
X198709668Y-39600697D01*
X198746684Y-39588358D01*
X198776161Y-39562794D01*
X198786604Y-39546203D01*
X198834223Y-39450966D01*
X198841229Y-39432657D01*
X198841483Y-39429073D01*
X198842859Y-39425753D01*
X198844780Y-39406244D01*
X198844780Y-39263387D01*
X198843807Y-39253513D01*
X198843995Y-39250879D01*
X198843207Y-39247415D01*
X198842859Y-39243878D01*
X198841847Y-39241436D01*
X198839648Y-39231764D01*
X198792029Y-39088907D01*
X198784038Y-39071007D01*
X198781682Y-39068291D01*
X198780308Y-39064973D01*
X198767872Y-39049819D01*
X198672634Y-38954581D01*
X198664963Y-38948286D01*
X198663234Y-38946292D01*
X198660226Y-38944398D01*
X198657480Y-38942145D01*
X198655040Y-38941134D01*
X198646644Y-38935849D01*
X198551406Y-38888230D01*
X198549979Y-38887684D01*
X198549399Y-38887254D01*
X198541222Y-38884332D01*
X198533098Y-38881224D01*
X198532375Y-38881172D01*
X198530938Y-38880659D01*
X198340463Y-38833040D01*
X198337081Y-38832539D01*
X198335718Y-38831975D01*
X198328367Y-38831251D01*
X198321070Y-38830172D01*
X198319611Y-38830389D01*
X198316209Y-38830054D01*
X198173352Y-38830054D01*
X198169949Y-38830389D01*
X198168491Y-38830172D01*
X198161193Y-38831251D01*
X198153843Y-38831975D01*
X198152479Y-38832539D01*
X198149098Y-38833040D01*
X197958622Y-38880659D01*
X197957183Y-38881172D01*
X197956463Y-38881224D01*
X197948338Y-38884332D01*
X197940162Y-38887254D01*
X197939582Y-38887683D01*
X197938154Y-38888230D01*
X197842917Y-38935849D01*
X197834518Y-38941135D01*
X197832081Y-38942145D01*
X197829337Y-38944396D01*
X197826326Y-38946292D01*
X197824593Y-38948289D01*
X197816927Y-38954581D01*
X197721689Y-39049819D01*
X197709253Y-39064973D01*
X197707878Y-39068291D01*
X197705524Y-39071006D01*
X197697532Y-39088906D01*
X197649912Y-39231764D01*
X197647712Y-39241436D01*
X197646701Y-39243878D01*
X197646352Y-39247415D01*
X197645565Y-39250879D01*
X197645752Y-39253513D01*
X197644780Y-39263387D01*
X197533669Y-39263387D01*
X197533669Y-38718943D01*
X198955891Y-38718943D01*
X198955891Y-43234481D01*
G37*
D11*
X191097717Y-72931700D02*
X191288193Y-72836462D01*
X191288193Y-72836462D02*
X191573907Y-72836462D01*
X191573907Y-72836462D02*
X191859622Y-72931700D01*
X191859622Y-72931700D02*
X192050098Y-73122176D01*
X192050098Y-73122176D02*
X192145336Y-73312652D01*
X192145336Y-73312652D02*
X192240574Y-73693604D01*
X192240574Y-73693604D02*
X192240574Y-73979319D01*
X192240574Y-73979319D02*
X192145336Y-74360271D01*
X192145336Y-74360271D02*
X192050098Y-74550747D01*
X192050098Y-74550747D02*
X191859622Y-74741224D01*
X191859622Y-74741224D02*
X191573907Y-74836462D01*
X191573907Y-74836462D02*
X191383431Y-74836462D01*
X191383431Y-74836462D02*
X191097717Y-74741224D01*
X191097717Y-74741224D02*
X191002479Y-74645985D01*
X191002479Y-74645985D02*
X191002479Y-73979319D01*
X191002479Y-73979319D02*
X191383431Y-73979319D01*
X189859622Y-74836462D02*
X190050098Y-74741224D01*
X190050098Y-74741224D02*
X190145336Y-74645985D01*
X190145336Y-74645985D02*
X190240574Y-74455509D01*
X190240574Y-74455509D02*
X190240574Y-73884081D01*
X190240574Y-73884081D02*
X190145336Y-73693604D01*
X190145336Y-73693604D02*
X190050098Y-73598366D01*
X190050098Y-73598366D02*
X189859622Y-73503128D01*
X189859622Y-73503128D02*
X189573907Y-73503128D01*
X189573907Y-73503128D02*
X189383431Y-73598366D01*
X189383431Y-73598366D02*
X189288193Y-73693604D01*
X189288193Y-73693604D02*
X189192955Y-73884081D01*
X189192955Y-73884081D02*
X189192955Y-74455509D01*
X189192955Y-74455509D02*
X189288193Y-74645985D01*
X189288193Y-74645985D02*
X189383431Y-74741224D01*
X189383431Y-74741224D02*
X189573907Y-74836462D01*
X189573907Y-74836462D02*
X189859622Y-74836462D01*
X188050098Y-74836462D02*
X188240574Y-74741224D01*
X188240574Y-74741224D02*
X188335812Y-74645985D01*
X188335812Y-74645985D02*
X188431050Y-74455509D01*
X188431050Y-74455509D02*
X188431050Y-73884081D01*
X188431050Y-73884081D02*
X188335812Y-73693604D01*
X188335812Y-73693604D02*
X188240574Y-73598366D01*
X188240574Y-73598366D02*
X188050098Y-73503128D01*
X188050098Y-73503128D02*
X187764383Y-73503128D01*
X187764383Y-73503128D02*
X187573907Y-73598366D01*
X187573907Y-73598366D02*
X187478669Y-73693604D01*
X187478669Y-73693604D02*
X187383431Y-73884081D01*
X187383431Y-73884081D02*
X187383431Y-74455509D01*
X187383431Y-74455509D02*
X187478669Y-74645985D01*
X187478669Y-74645985D02*
X187573907Y-74741224D01*
X187573907Y-74741224D02*
X187764383Y-74836462D01*
X187764383Y-74836462D02*
X188050098Y-74836462D01*
X185669145Y-74836462D02*
X185669145Y-72836462D01*
X185669145Y-74741224D02*
X185859621Y-74836462D01*
X185859621Y-74836462D02*
X186240574Y-74836462D01*
X186240574Y-74836462D02*
X186431050Y-74741224D01*
X186431050Y-74741224D02*
X186526288Y-74645985D01*
X186526288Y-74645985D02*
X186621526Y-74455509D01*
X186621526Y-74455509D02*
X186621526Y-73884081D01*
X186621526Y-73884081D02*
X186526288Y-73693604D01*
X186526288Y-73693604D02*
X186431050Y-73598366D01*
X186431050Y-73598366D02*
X186240574Y-73503128D01*
X186240574Y-73503128D02*
X185859621Y-73503128D01*
X185859621Y-73503128D02*
X185669145Y-73598366D01*
X182526287Y-73788843D02*
X182240573Y-73884081D01*
X182240573Y-73884081D02*
X182145335Y-73979319D01*
X182145335Y-73979319D02*
X182050097Y-74169795D01*
X182050097Y-74169795D02*
X182050097Y-74455509D01*
X182050097Y-74455509D02*
X182145335Y-74645985D01*
X182145335Y-74645985D02*
X182240573Y-74741224D01*
X182240573Y-74741224D02*
X182431049Y-74836462D01*
X182431049Y-74836462D02*
X183192954Y-74836462D01*
X183192954Y-74836462D02*
X183192954Y-72836462D01*
X183192954Y-72836462D02*
X182526287Y-72836462D01*
X182526287Y-72836462D02*
X182335811Y-72931700D01*
X182335811Y-72931700D02*
X182240573Y-73026938D01*
X182240573Y-73026938D02*
X182145335Y-73217414D01*
X182145335Y-73217414D02*
X182145335Y-73407890D01*
X182145335Y-73407890D02*
X182240573Y-73598366D01*
X182240573Y-73598366D02*
X182335811Y-73693604D01*
X182335811Y-73693604D02*
X182526287Y-73788843D01*
X182526287Y-73788843D02*
X183192954Y-73788843D01*
X180907240Y-74836462D02*
X181097716Y-74741224D01*
X181097716Y-74741224D02*
X181192954Y-74645985D01*
X181192954Y-74645985D02*
X181288192Y-74455509D01*
X181288192Y-74455509D02*
X181288192Y-73884081D01*
X181288192Y-73884081D02*
X181192954Y-73693604D01*
X181192954Y-73693604D02*
X181097716Y-73598366D01*
X181097716Y-73598366D02*
X180907240Y-73503128D01*
X180907240Y-73503128D02*
X180621525Y-73503128D01*
X180621525Y-73503128D02*
X180431049Y-73598366D01*
X180431049Y-73598366D02*
X180335811Y-73693604D01*
X180335811Y-73693604D02*
X180240573Y-73884081D01*
X180240573Y-73884081D02*
X180240573Y-74455509D01*
X180240573Y-74455509D02*
X180335811Y-74645985D01*
X180335811Y-74645985D02*
X180431049Y-74741224D01*
X180431049Y-74741224D02*
X180621525Y-74836462D01*
X180621525Y-74836462D02*
X180907240Y-74836462D01*
X179573906Y-73503128D02*
X179097716Y-74836462D01*
X178621525Y-73503128D02*
X179097716Y-74836462D01*
X179097716Y-74836462D02*
X179288192Y-75312652D01*
X179288192Y-75312652D02*
X179383430Y-75407890D01*
X179383430Y-75407890D02*
X179573906Y-75503128D01*
X175383429Y-74836462D02*
X176335810Y-74836462D01*
X176335810Y-74836462D02*
X176335810Y-72836462D01*
X174716762Y-74836462D02*
X174716762Y-73503128D01*
X174716762Y-72836462D02*
X174812000Y-72931700D01*
X174812000Y-72931700D02*
X174716762Y-73026938D01*
X174716762Y-73026938D02*
X174621524Y-72931700D01*
X174621524Y-72931700D02*
X174716762Y-72836462D01*
X174716762Y-72836462D02*
X174716762Y-73026938D01*
X173764381Y-74836462D02*
X173764381Y-73503128D01*
X173764381Y-73693604D02*
X173669143Y-73598366D01*
X173669143Y-73598366D02*
X173478667Y-73503128D01*
X173478667Y-73503128D02*
X173192952Y-73503128D01*
X173192952Y-73503128D02*
X173002476Y-73598366D01*
X173002476Y-73598366D02*
X172907238Y-73788843D01*
X172907238Y-73788843D02*
X172907238Y-74836462D01*
X172907238Y-73788843D02*
X172812000Y-73598366D01*
X172812000Y-73598366D02*
X172621524Y-73503128D01*
X172621524Y-73503128D02*
X172335810Y-73503128D01*
X172335810Y-73503128D02*
X172145333Y-73598366D01*
X172145333Y-73598366D02*
X172050095Y-73788843D01*
X172050095Y-73788843D02*
X172050095Y-74836462D01*
X171097714Y-74836462D02*
X171097714Y-73503128D01*
X171097714Y-72836462D02*
X171192952Y-72931700D01*
X171192952Y-72931700D02*
X171097714Y-73026938D01*
X171097714Y-73026938D02*
X171002476Y-72931700D01*
X171002476Y-72931700D02*
X171097714Y-72836462D01*
X171097714Y-72836462D02*
X171097714Y-73026938D01*
X170431047Y-73503128D02*
X169669143Y-73503128D01*
X170145333Y-72836462D02*
X170145333Y-74550747D01*
X170145333Y-74550747D02*
X170050095Y-74741224D01*
X170050095Y-74741224D02*
X169859619Y-74836462D01*
X169859619Y-74836462D02*
X169669143Y-74836462D01*
X168240571Y-74741224D02*
X168431047Y-74836462D01*
X168431047Y-74836462D02*
X168812000Y-74836462D01*
X168812000Y-74836462D02*
X169002476Y-74741224D01*
X169002476Y-74741224D02*
X169097714Y-74550747D01*
X169097714Y-74550747D02*
X169097714Y-73788843D01*
X169097714Y-73788843D02*
X169002476Y-73598366D01*
X169002476Y-73598366D02*
X168812000Y-73503128D01*
X168812000Y-73503128D02*
X168431047Y-73503128D01*
X168431047Y-73503128D02*
X168240571Y-73598366D01*
X168240571Y-73598366D02*
X168145333Y-73788843D01*
X168145333Y-73788843D02*
X168145333Y-73979319D01*
X168145333Y-73979319D02*
X169097714Y-74169795D01*
X167288190Y-74836462D02*
X167288190Y-73503128D01*
X167288190Y-73884081D02*
X167192952Y-73693604D01*
X167192952Y-73693604D02*
X167097714Y-73598366D01*
X167097714Y-73598366D02*
X166907238Y-73503128D01*
X166907238Y-73503128D02*
X166716761Y-73503128D01*
X192145336Y-78056350D02*
X192145336Y-76056350D01*
X192145336Y-76056350D02*
X191669146Y-76056350D01*
X191669146Y-76056350D02*
X191383431Y-76151588D01*
X191383431Y-76151588D02*
X191192955Y-76342064D01*
X191192955Y-76342064D02*
X191097717Y-76532540D01*
X191097717Y-76532540D02*
X191002479Y-76913492D01*
X191002479Y-76913492D02*
X191002479Y-77199207D01*
X191002479Y-77199207D02*
X191097717Y-77580159D01*
X191097717Y-77580159D02*
X191192955Y-77770635D01*
X191192955Y-77770635D02*
X191383431Y-77961112D01*
X191383431Y-77961112D02*
X191669146Y-78056350D01*
X191669146Y-78056350D02*
X192145336Y-78056350D01*
X189383431Y-77961112D02*
X189573907Y-78056350D01*
X189573907Y-78056350D02*
X189954860Y-78056350D01*
X189954860Y-78056350D02*
X190145336Y-77961112D01*
X190145336Y-77961112D02*
X190240574Y-77770635D01*
X190240574Y-77770635D02*
X190240574Y-77008731D01*
X190240574Y-77008731D02*
X190145336Y-76818254D01*
X190145336Y-76818254D02*
X189954860Y-76723016D01*
X189954860Y-76723016D02*
X189573907Y-76723016D01*
X189573907Y-76723016D02*
X189383431Y-76818254D01*
X189383431Y-76818254D02*
X189288193Y-77008731D01*
X189288193Y-77008731D02*
X189288193Y-77199207D01*
X189288193Y-77199207D02*
X190240574Y-77389683D01*
X188526288Y-77961112D02*
X188335812Y-78056350D01*
X188335812Y-78056350D02*
X187954860Y-78056350D01*
X187954860Y-78056350D02*
X187764383Y-77961112D01*
X187764383Y-77961112D02*
X187669145Y-77770635D01*
X187669145Y-77770635D02*
X187669145Y-77675397D01*
X187669145Y-77675397D02*
X187764383Y-77484921D01*
X187764383Y-77484921D02*
X187954860Y-77389683D01*
X187954860Y-77389683D02*
X188240574Y-77389683D01*
X188240574Y-77389683D02*
X188431050Y-77294445D01*
X188431050Y-77294445D02*
X188526288Y-77103969D01*
X188526288Y-77103969D02*
X188526288Y-77008731D01*
X188526288Y-77008731D02*
X188431050Y-76818254D01*
X188431050Y-76818254D02*
X188240574Y-76723016D01*
X188240574Y-76723016D02*
X187954860Y-76723016D01*
X187954860Y-76723016D02*
X187764383Y-76818254D01*
X186812002Y-78056350D02*
X186812002Y-76723016D01*
X186812002Y-76056350D02*
X186907240Y-76151588D01*
X186907240Y-76151588D02*
X186812002Y-76246826D01*
X186812002Y-76246826D02*
X186716764Y-76151588D01*
X186716764Y-76151588D02*
X186812002Y-76056350D01*
X186812002Y-76056350D02*
X186812002Y-76246826D01*
X185002478Y-76723016D02*
X185002478Y-78342064D01*
X185002478Y-78342064D02*
X185097716Y-78532540D01*
X185097716Y-78532540D02*
X185192954Y-78627778D01*
X185192954Y-78627778D02*
X185383431Y-78723016D01*
X185383431Y-78723016D02*
X185669145Y-78723016D01*
X185669145Y-78723016D02*
X185859621Y-78627778D01*
X185002478Y-77961112D02*
X185192954Y-78056350D01*
X185192954Y-78056350D02*
X185573907Y-78056350D01*
X185573907Y-78056350D02*
X185764383Y-77961112D01*
X185764383Y-77961112D02*
X185859621Y-77865873D01*
X185859621Y-77865873D02*
X185954859Y-77675397D01*
X185954859Y-77675397D02*
X185954859Y-77103969D01*
X185954859Y-77103969D02*
X185859621Y-76913492D01*
X185859621Y-76913492D02*
X185764383Y-76818254D01*
X185764383Y-76818254D02*
X185573907Y-76723016D01*
X185573907Y-76723016D02*
X185192954Y-76723016D01*
X185192954Y-76723016D02*
X185002478Y-76818254D01*
X184050097Y-76723016D02*
X184050097Y-78056350D01*
X184050097Y-76913492D02*
X183954859Y-76818254D01*
X183954859Y-76818254D02*
X183764383Y-76723016D01*
X183764383Y-76723016D02*
X183478668Y-76723016D01*
X183478668Y-76723016D02*
X183288192Y-76818254D01*
X183288192Y-76818254D02*
X183192954Y-77008731D01*
X183192954Y-77008731D02*
X183192954Y-78056350D01*
X181478668Y-77961112D02*
X181669144Y-78056350D01*
X181669144Y-78056350D02*
X182050097Y-78056350D01*
X182050097Y-78056350D02*
X182240573Y-77961112D01*
X182240573Y-77961112D02*
X182335811Y-77770635D01*
X182335811Y-77770635D02*
X182335811Y-77008731D01*
X182335811Y-77008731D02*
X182240573Y-76818254D01*
X182240573Y-76818254D02*
X182050097Y-76723016D01*
X182050097Y-76723016D02*
X181669144Y-76723016D01*
X181669144Y-76723016D02*
X181478668Y-76818254D01*
X181478668Y-76818254D02*
X181383430Y-77008731D01*
X181383430Y-77008731D02*
X181383430Y-77199207D01*
X181383430Y-77199207D02*
X182335811Y-77389683D01*
X179669144Y-78056350D02*
X179669144Y-76056350D01*
X179669144Y-77961112D02*
X179859620Y-78056350D01*
X179859620Y-78056350D02*
X180240573Y-78056350D01*
X180240573Y-78056350D02*
X180431049Y-77961112D01*
X180431049Y-77961112D02*
X180526287Y-77865873D01*
X180526287Y-77865873D02*
X180621525Y-77675397D01*
X180621525Y-77675397D02*
X180621525Y-77103969D01*
X180621525Y-77103969D02*
X180526287Y-76913492D01*
X180526287Y-76913492D02*
X180431049Y-76818254D01*
X180431049Y-76818254D02*
X180240573Y-76723016D01*
X180240573Y-76723016D02*
X179859620Y-76723016D01*
X179859620Y-76723016D02*
X179669144Y-76818254D01*
X177192953Y-78056350D02*
X177192953Y-76056350D01*
X177192953Y-76818254D02*
X177002477Y-76723016D01*
X177002477Y-76723016D02*
X176621524Y-76723016D01*
X176621524Y-76723016D02*
X176431048Y-76818254D01*
X176431048Y-76818254D02*
X176335810Y-76913492D01*
X176335810Y-76913492D02*
X176240572Y-77103969D01*
X176240572Y-77103969D02*
X176240572Y-77675397D01*
X176240572Y-77675397D02*
X176335810Y-77865873D01*
X176335810Y-77865873D02*
X176431048Y-77961112D01*
X176431048Y-77961112D02*
X176621524Y-78056350D01*
X176621524Y-78056350D02*
X177002477Y-78056350D01*
X177002477Y-78056350D02*
X177192953Y-77961112D01*
X175573905Y-76723016D02*
X175097715Y-78056350D01*
X174621524Y-76723016D02*
X175097715Y-78056350D01*
X175097715Y-78056350D02*
X175288191Y-78532540D01*
X175288191Y-78532540D02*
X175383429Y-78627778D01*
X175383429Y-78627778D02*
X175573905Y-78723016D01*
X171669142Y-77008731D02*
X171383428Y-77103969D01*
X171383428Y-77103969D02*
X171288190Y-77199207D01*
X171288190Y-77199207D02*
X171192952Y-77389683D01*
X171192952Y-77389683D02*
X171192952Y-77675397D01*
X171192952Y-77675397D02*
X171288190Y-77865873D01*
X171288190Y-77865873D02*
X171383428Y-77961112D01*
X171383428Y-77961112D02*
X171573904Y-78056350D01*
X171573904Y-78056350D02*
X172335809Y-78056350D01*
X172335809Y-78056350D02*
X172335809Y-76056350D01*
X172335809Y-76056350D02*
X171669142Y-76056350D01*
X171669142Y-76056350D02*
X171478666Y-76151588D01*
X171478666Y-76151588D02*
X171383428Y-76246826D01*
X171383428Y-76246826D02*
X171288190Y-76437302D01*
X171288190Y-76437302D02*
X171288190Y-76627778D01*
X171288190Y-76627778D02*
X171383428Y-76818254D01*
X171383428Y-76818254D02*
X171478666Y-76913492D01*
X171478666Y-76913492D02*
X171669142Y-77008731D01*
X171669142Y-77008731D02*
X172335809Y-77008731D01*
X170431047Y-77484921D02*
X169478666Y-77484921D01*
X170621523Y-78056350D02*
X169954857Y-76056350D01*
X169954857Y-76056350D02*
X169288190Y-78056350D01*
X167478666Y-78056350D02*
X168145333Y-77103969D01*
X168621523Y-78056350D02*
X168621523Y-76056350D01*
X168621523Y-76056350D02*
X167859618Y-76056350D01*
X167859618Y-76056350D02*
X167669142Y-76151588D01*
X167669142Y-76151588D02*
X167573904Y-76246826D01*
X167573904Y-76246826D02*
X167478666Y-76437302D01*
X167478666Y-76437302D02*
X167478666Y-76723016D01*
X167478666Y-76723016D02*
X167573904Y-76913492D01*
X167573904Y-76913492D02*
X167669142Y-77008731D01*
X167669142Y-77008731D02*
X167859618Y-77103969D01*
X167859618Y-77103969D02*
X168621523Y-77103969D01*
X166621523Y-78056350D02*
X166621523Y-76056350D01*
X165478666Y-78056350D02*
X166335809Y-76913492D01*
X165478666Y-76056350D02*
X166621523Y-77199207D01*
X191764384Y-79276238D02*
X191573907Y-79276238D01*
X191573907Y-79276238D02*
X191383431Y-79371476D01*
X191383431Y-79371476D02*
X191288193Y-79466714D01*
X191288193Y-79466714D02*
X191192955Y-79657190D01*
X191192955Y-79657190D02*
X191097717Y-80038142D01*
X191097717Y-80038142D02*
X191097717Y-80514333D01*
X191097717Y-80514333D02*
X191192955Y-80895285D01*
X191192955Y-80895285D02*
X191288193Y-81085761D01*
X191288193Y-81085761D02*
X191383431Y-81181000D01*
X191383431Y-81181000D02*
X191573907Y-81276238D01*
X191573907Y-81276238D02*
X191764384Y-81276238D01*
X191764384Y-81276238D02*
X191954860Y-81181000D01*
X191954860Y-81181000D02*
X192050098Y-81085761D01*
X192050098Y-81085761D02*
X192145336Y-80895285D01*
X192145336Y-80895285D02*
X192240574Y-80514333D01*
X192240574Y-80514333D02*
X192240574Y-80038142D01*
X192240574Y-80038142D02*
X192145336Y-79657190D01*
X192145336Y-79657190D02*
X192050098Y-79466714D01*
X192050098Y-79466714D02*
X191954860Y-79371476D01*
X191954860Y-79371476D02*
X191764384Y-79276238D01*
X190431050Y-79276238D02*
X189192955Y-79276238D01*
X189192955Y-79276238D02*
X189859622Y-80038142D01*
X189859622Y-80038142D02*
X189573907Y-80038142D01*
X189573907Y-80038142D02*
X189383431Y-80133380D01*
X189383431Y-80133380D02*
X189288193Y-80228619D01*
X189288193Y-80228619D02*
X189192955Y-80419095D01*
X189192955Y-80419095D02*
X189192955Y-80895285D01*
X189192955Y-80895285D02*
X189288193Y-81085761D01*
X189288193Y-81085761D02*
X189383431Y-81181000D01*
X189383431Y-81181000D02*
X189573907Y-81276238D01*
X189573907Y-81276238D02*
X190145336Y-81276238D01*
X190145336Y-81276238D02*
X190335812Y-81181000D01*
X190335812Y-81181000D02*
X190431050Y-81085761D01*
X188335812Y-81085761D02*
X188240574Y-81181000D01*
X188240574Y-81181000D02*
X188335812Y-81276238D01*
X188335812Y-81276238D02*
X188431050Y-81181000D01*
X188431050Y-81181000D02*
X188335812Y-81085761D01*
X188335812Y-81085761D02*
X188335812Y-81276238D01*
X187002479Y-79276238D02*
X186812002Y-79276238D01*
X186812002Y-79276238D02*
X186621526Y-79371476D01*
X186621526Y-79371476D02*
X186526288Y-79466714D01*
X186526288Y-79466714D02*
X186431050Y-79657190D01*
X186431050Y-79657190D02*
X186335812Y-80038142D01*
X186335812Y-80038142D02*
X186335812Y-80514333D01*
X186335812Y-80514333D02*
X186431050Y-80895285D01*
X186431050Y-80895285D02*
X186526288Y-81085761D01*
X186526288Y-81085761D02*
X186621526Y-81181000D01*
X186621526Y-81181000D02*
X186812002Y-81276238D01*
X186812002Y-81276238D02*
X187002479Y-81276238D01*
X187002479Y-81276238D02*
X187192955Y-81181000D01*
X187192955Y-81181000D02*
X187288193Y-81085761D01*
X187288193Y-81085761D02*
X187383431Y-80895285D01*
X187383431Y-80895285D02*
X187478669Y-80514333D01*
X187478669Y-80514333D02*
X187478669Y-80038142D01*
X187478669Y-80038142D02*
X187383431Y-79657190D01*
X187383431Y-79657190D02*
X187288193Y-79466714D01*
X187288193Y-79466714D02*
X187192955Y-79371476D01*
X187192955Y-79371476D02*
X187002479Y-79276238D01*
X184526288Y-79276238D02*
X185478669Y-79276238D01*
X185478669Y-79276238D02*
X185573907Y-80228619D01*
X185573907Y-80228619D02*
X185478669Y-80133380D01*
X185478669Y-80133380D02*
X185288193Y-80038142D01*
X185288193Y-80038142D02*
X184812002Y-80038142D01*
X184812002Y-80038142D02*
X184621526Y-80133380D01*
X184621526Y-80133380D02*
X184526288Y-80228619D01*
X184526288Y-80228619D02*
X184431050Y-80419095D01*
X184431050Y-80419095D02*
X184431050Y-80895285D01*
X184431050Y-80895285D02*
X184526288Y-81085761D01*
X184526288Y-81085761D02*
X184621526Y-81181000D01*
X184621526Y-81181000D02*
X184812002Y-81276238D01*
X184812002Y-81276238D02*
X185288193Y-81276238D01*
X185288193Y-81276238D02*
X185478669Y-81181000D01*
X185478669Y-81181000D02*
X185573907Y-81085761D01*
X183573907Y-81085761D02*
X183478669Y-81181000D01*
X183478669Y-81181000D02*
X183573907Y-81276238D01*
X183573907Y-81276238D02*
X183669145Y-81181000D01*
X183669145Y-81181000D02*
X183573907Y-81085761D01*
X183573907Y-81085761D02*
X183573907Y-81276238D01*
X182716764Y-79466714D02*
X182621526Y-79371476D01*
X182621526Y-79371476D02*
X182431050Y-79276238D01*
X182431050Y-79276238D02*
X181954859Y-79276238D01*
X181954859Y-79276238D02*
X181764383Y-79371476D01*
X181764383Y-79371476D02*
X181669145Y-79466714D01*
X181669145Y-79466714D02*
X181573907Y-79657190D01*
X181573907Y-79657190D02*
X181573907Y-79847666D01*
X181573907Y-79847666D02*
X181669145Y-80133380D01*
X181669145Y-80133380D02*
X182812002Y-81276238D01*
X182812002Y-81276238D02*
X181573907Y-81276238D01*
X180335812Y-79276238D02*
X180145335Y-79276238D01*
X180145335Y-79276238D02*
X179954859Y-79371476D01*
X179954859Y-79371476D02*
X179859621Y-79466714D01*
X179859621Y-79466714D02*
X179764383Y-79657190D01*
X179764383Y-79657190D02*
X179669145Y-80038142D01*
X179669145Y-80038142D02*
X179669145Y-80514333D01*
X179669145Y-80514333D02*
X179764383Y-80895285D01*
X179764383Y-80895285D02*
X179859621Y-81085761D01*
X179859621Y-81085761D02*
X179954859Y-81181000D01*
X179954859Y-81181000D02*
X180145335Y-81276238D01*
X180145335Y-81276238D02*
X180335812Y-81276238D01*
X180335812Y-81276238D02*
X180526288Y-81181000D01*
X180526288Y-81181000D02*
X180621526Y-81085761D01*
X180621526Y-81085761D02*
X180716764Y-80895285D01*
X180716764Y-80895285D02*
X180812002Y-80514333D01*
X180812002Y-80514333D02*
X180812002Y-80038142D01*
X180812002Y-80038142D02*
X180716764Y-79657190D01*
X180716764Y-79657190D02*
X180621526Y-79466714D01*
X180621526Y-79466714D02*
X180526288Y-79371476D01*
X180526288Y-79371476D02*
X180335812Y-79276238D01*
X178907240Y-79466714D02*
X178812002Y-79371476D01*
X178812002Y-79371476D02*
X178621526Y-79276238D01*
X178621526Y-79276238D02*
X178145335Y-79276238D01*
X178145335Y-79276238D02*
X177954859Y-79371476D01*
X177954859Y-79371476D02*
X177859621Y-79466714D01*
X177859621Y-79466714D02*
X177764383Y-79657190D01*
X177764383Y-79657190D02*
X177764383Y-79847666D01*
X177764383Y-79847666D02*
X177859621Y-80133380D01*
X177859621Y-80133380D02*
X179002478Y-81276238D01*
X179002478Y-81276238D02*
X177764383Y-81276238D01*
X176050097Y-79276238D02*
X176431050Y-79276238D01*
X176431050Y-79276238D02*
X176621526Y-79371476D01*
X176621526Y-79371476D02*
X176716764Y-79466714D01*
X176716764Y-79466714D02*
X176907240Y-79752428D01*
X176907240Y-79752428D02*
X177002478Y-80133380D01*
X177002478Y-80133380D02*
X177002478Y-80895285D01*
X177002478Y-80895285D02*
X176907240Y-81085761D01*
X176907240Y-81085761D02*
X176812002Y-81181000D01*
X176812002Y-81181000D02*
X176621526Y-81276238D01*
X176621526Y-81276238D02*
X176240573Y-81276238D01*
X176240573Y-81276238D02*
X176050097Y-81181000D01*
X176050097Y-81181000D02*
X175954859Y-81085761D01*
X175954859Y-81085761D02*
X175859621Y-80895285D01*
X175859621Y-80895285D02*
X175859621Y-80419095D01*
X175859621Y-80419095D02*
X175954859Y-80228619D01*
X175954859Y-80228619D02*
X176050097Y-80133380D01*
X176050097Y-80133380D02*
X176240573Y-80038142D01*
X176240573Y-80038142D02*
X176621526Y-80038142D01*
X176621526Y-80038142D02*
X176812002Y-80133380D01*
X176812002Y-80133380D02*
X176907240Y-80228619D01*
X176907240Y-80228619D02*
X177002478Y-80419095D01*
D10*
G36*
X191024780Y-39335018D02*
G01*
X190994975Y-39394627D01*
X190970306Y-39419295D01*
X190910697Y-39449101D01*
X190815054Y-39449101D01*
X190755444Y-39419296D01*
X190730776Y-39394627D01*
X190700971Y-39335017D01*
X190700971Y-39077673D01*
X191024780Y-39077673D01*
X191024780Y-39335018D01*
G37*
G36*
X191335891Y-40760212D02*
G01*
X189913669Y-40760212D01*
X189913669Y-39882540D01*
X190024780Y-39882540D01*
X190032432Y-39920800D01*
X190054143Y-39953220D01*
X190069310Y-39965640D01*
X190444502Y-40215768D01*
X190069310Y-40465896D01*
X190054143Y-40478316D01*
X190032432Y-40510736D01*
X190024780Y-40548996D01*
X190032352Y-40587273D01*
X190053995Y-40619738D01*
X190086415Y-40641449D01*
X190124675Y-40649101D01*
X190162952Y-40641529D01*
X190180250Y-40632306D01*
X190624780Y-40335952D01*
X191069310Y-40632306D01*
X191086608Y-40641529D01*
X191124885Y-40649101D01*
X191163145Y-40641449D01*
X191195565Y-40619738D01*
X191217208Y-40587273D01*
X191224780Y-40548996D01*
X191217128Y-40510736D01*
X191195417Y-40478316D01*
X191180250Y-40465896D01*
X190805057Y-40215768D01*
X191180250Y-39965640D01*
X191195417Y-39953220D01*
X191217128Y-39920800D01*
X191224780Y-39882540D01*
X191217208Y-39844263D01*
X191195565Y-39811798D01*
X191163145Y-39790087D01*
X191124885Y-39782435D01*
X191086608Y-39790007D01*
X191069310Y-39799230D01*
X190624780Y-40095583D01*
X190180250Y-39799230D01*
X190162952Y-39790007D01*
X190124675Y-39782435D01*
X190086415Y-39790087D01*
X190053995Y-39811798D01*
X190032352Y-39844263D01*
X190024780Y-39882540D01*
X189913669Y-39882540D01*
X189913669Y-39551269D01*
X190024803Y-39551269D01*
X190033243Y-39589363D01*
X190055618Y-39621328D01*
X190088523Y-39642297D01*
X190126948Y-39649078D01*
X190165042Y-39640638D01*
X190182126Y-39631024D01*
X190510651Y-39401056D01*
X190511528Y-39403346D01*
X190559147Y-39498584D01*
X190564432Y-39506980D01*
X190565443Y-39509420D01*
X190567696Y-39512166D01*
X190569590Y-39515174D01*
X190571584Y-39516903D01*
X190577879Y-39524574D01*
X190625498Y-39572192D01*
X190633164Y-39578484D01*
X190634897Y-39580482D01*
X190637905Y-39582375D01*
X190640651Y-39584629D01*
X190643091Y-39585639D01*
X190651488Y-39590925D01*
X190746725Y-39638544D01*
X190765034Y-39645550D01*
X190768617Y-39645804D01*
X190771938Y-39647180D01*
X190791447Y-39649101D01*
X190934304Y-39649101D01*
X190953813Y-39647180D01*
X190957133Y-39645804D01*
X190960717Y-39645550D01*
X190979025Y-39638544D01*
X191074263Y-39590925D01*
X191082659Y-39585639D01*
X191085099Y-39584629D01*
X191087845Y-39582375D01*
X191090853Y-39580482D01*
X191092582Y-39578487D01*
X191100253Y-39572193D01*
X191147871Y-39524574D01*
X191154163Y-39516907D01*
X191156161Y-39515175D01*
X191158054Y-39512166D01*
X191160308Y-39509421D01*
X191161318Y-39506980D01*
X191166604Y-39498584D01*
X191214223Y-39403347D01*
X191221229Y-39385038D01*
X191221483Y-39381454D01*
X191222859Y-39378134D01*
X191224780Y-39358625D01*
X191224780Y-38977673D01*
X191222859Y-38958164D01*
X191207927Y-38922116D01*
X191180337Y-38894526D01*
X191144289Y-38879594D01*
X191124780Y-38877673D01*
X190124780Y-38877673D01*
X190105271Y-38879594D01*
X190069223Y-38894526D01*
X190041633Y-38922116D01*
X190026701Y-38958164D01*
X190026701Y-38997182D01*
X190041633Y-39033230D01*
X190069223Y-39060820D01*
X190105271Y-39075752D01*
X190124780Y-39077673D01*
X190500971Y-39077673D01*
X190500971Y-39163702D01*
X190067434Y-39467178D01*
X190052553Y-39479939D01*
X190031584Y-39512844D01*
X190024803Y-39551269D01*
X189913669Y-39551269D01*
X189913669Y-38766562D01*
X191335891Y-38766562D01*
X191335891Y-40760212D01*
G37*
G36*
X193348552Y-41120530D02*
G01*
X193050495Y-41219882D01*
X193050495Y-41021177D01*
X193348552Y-41120530D01*
G37*
G36*
X193564780Y-40151922D02*
G01*
X193529758Y-40256986D01*
X193462686Y-40324058D01*
X193391780Y-40359511D01*
X193223899Y-40401482D01*
X193105661Y-40401482D01*
X192937780Y-40359511D01*
X192866875Y-40324059D01*
X192799802Y-40256986D01*
X192764780Y-40151921D01*
X192764780Y-40030054D01*
X193564780Y-40030054D01*
X193564780Y-40151922D01*
G37*
G36*
X193875891Y-41664189D02*
G01*
X192453669Y-41664189D01*
X192453669Y-40774690D01*
X192565565Y-40774690D01*
X192568331Y-40813610D01*
X192585781Y-40848509D01*
X192615257Y-40874074D01*
X192633157Y-40882065D01*
X192850495Y-40954510D01*
X192850495Y-41286549D01*
X192633157Y-41358995D01*
X192615257Y-41366986D01*
X192585781Y-41392551D01*
X192568331Y-41427450D01*
X192565565Y-41466370D01*
X192577903Y-41503386D01*
X192603468Y-41532862D01*
X192638367Y-41550312D01*
X192677287Y-41553078D01*
X192696403Y-41548731D01*
X193696402Y-41215398D01*
X193714303Y-41207407D01*
X193719704Y-41202722D01*
X193726091Y-41199529D01*
X193734303Y-41190060D01*
X193743779Y-41181842D01*
X193746974Y-41175450D01*
X193751656Y-41170053D01*
X193755622Y-41158155D01*
X193761228Y-41146943D01*
X193761734Y-41139818D01*
X193763995Y-41133037D01*
X193763105Y-41120530D01*
X193763995Y-41108023D01*
X193761734Y-41101241D01*
X193761228Y-41094117D01*
X193755622Y-41082904D01*
X193751656Y-41071007D01*
X193746974Y-41065609D01*
X193743779Y-41059218D01*
X193734303Y-41050999D01*
X193726091Y-41041531D01*
X193719704Y-41038337D01*
X193714303Y-41033653D01*
X193696402Y-41025662D01*
X192696403Y-40692329D01*
X192677287Y-40687982D01*
X192638367Y-40690748D01*
X192603468Y-40708198D01*
X192577903Y-40737674D01*
X192565565Y-40774690D01*
X192453669Y-40774690D01*
X192453669Y-39930054D01*
X192564780Y-39930054D01*
X192564780Y-40168149D01*
X192565752Y-40178022D01*
X192565565Y-40180657D01*
X192566352Y-40184120D01*
X192566701Y-40187658D01*
X192567712Y-40190099D01*
X192569912Y-40199772D01*
X192617532Y-40342630D01*
X192625524Y-40360530D01*
X192627878Y-40363244D01*
X192629253Y-40366563D01*
X192641689Y-40381717D01*
X192736927Y-40476955D01*
X192744593Y-40483246D01*
X192746326Y-40485244D01*
X192749337Y-40487139D01*
X192752081Y-40489391D01*
X192754518Y-40490400D01*
X192762917Y-40495687D01*
X192858154Y-40543306D01*
X192859582Y-40543852D01*
X192860162Y-40544282D01*
X192868338Y-40547203D01*
X192876463Y-40550312D01*
X192877183Y-40550363D01*
X192878622Y-40550877D01*
X193069098Y-40598496D01*
X193072479Y-40598996D01*
X193073843Y-40599561D01*
X193081193Y-40600284D01*
X193088491Y-40601364D01*
X193089949Y-40601146D01*
X193093352Y-40601482D01*
X193236209Y-40601482D01*
X193239611Y-40601146D01*
X193241070Y-40601364D01*
X193248367Y-40600284D01*
X193255718Y-40599561D01*
X193257081Y-40598996D01*
X193260463Y-40598496D01*
X193450938Y-40550877D01*
X193452375Y-40550363D01*
X193453098Y-40550312D01*
X193461222Y-40547203D01*
X193469399Y-40544282D01*
X193469979Y-40543851D01*
X193471406Y-40543306D01*
X193566644Y-40495687D01*
X193575040Y-40490401D01*
X193577480Y-40489391D01*
X193580226Y-40487137D01*
X193583234Y-40485244D01*
X193584963Y-40483249D01*
X193592634Y-40476955D01*
X193687872Y-40381717D01*
X193700308Y-40366563D01*
X193701682Y-40363244D01*
X193704038Y-40360529D01*
X193712029Y-40342629D01*
X193759648Y-40199772D01*
X193761847Y-40190099D01*
X193762859Y-40187658D01*
X193763207Y-40184120D01*
X193763995Y-40180657D01*
X193763807Y-40178022D01*
X193764780Y-40168149D01*
X193764780Y-39930054D01*
X193762859Y-39910545D01*
X193747927Y-39874497D01*
X193720337Y-39846907D01*
X193684289Y-39831975D01*
X193664780Y-39830054D01*
X192664780Y-39830054D01*
X192645271Y-39831975D01*
X192609223Y-39846907D01*
X192581633Y-39874497D01*
X192566701Y-39910545D01*
X192564780Y-39930054D01*
X192453669Y-39930054D01*
X192453669Y-39072911D01*
X192564780Y-39072911D01*
X192564780Y-39311006D01*
X192566701Y-39330515D01*
X192568076Y-39333834D01*
X192568331Y-39337420D01*
X192575338Y-39355728D01*
X192622958Y-39450966D01*
X192628242Y-39459361D01*
X192629253Y-39461801D01*
X192631506Y-39464546D01*
X192633401Y-39467557D01*
X192635397Y-39469288D01*
X192641689Y-39476955D01*
X192689308Y-39524573D01*
X192696974Y-39530865D01*
X192698707Y-39532863D01*
X192701715Y-39534756D01*
X192704461Y-39537010D01*
X192706901Y-39538020D01*
X192715298Y-39543306D01*
X192810535Y-39590925D01*
X192828844Y-39597931D01*
X192832427Y-39598185D01*
X192835748Y-39599561D01*
X192855257Y-39601482D01*
X192950495Y-39601482D01*
X192970004Y-39599561D01*
X192973324Y-39598185D01*
X192976908Y-39597931D01*
X192995216Y-39590925D01*
X193090454Y-39543306D01*
X193098850Y-39538020D01*
X193101290Y-39537010D01*
X193104036Y-39534756D01*
X193107044Y-39532863D01*
X193108773Y-39530868D01*
X193116444Y-39524574D01*
X193164062Y-39476955D01*
X193170354Y-39469288D01*
X193172352Y-39467556D01*
X193174245Y-39464547D01*
X193176499Y-39461802D01*
X193177509Y-39459361D01*
X193182795Y-39450965D01*
X193230414Y-39355728D01*
X193230960Y-39354299D01*
X193231390Y-39353720D01*
X193234311Y-39345543D01*
X193237420Y-39337419D01*
X193237471Y-39336698D01*
X193237985Y-39335260D01*
X193282941Y-39155434D01*
X193318395Y-39084527D01*
X193343063Y-39059858D01*
X193402673Y-39030054D01*
X193450697Y-39030054D01*
X193510306Y-39059859D01*
X193534975Y-39084527D01*
X193564780Y-39144137D01*
X193564780Y-39342398D01*
X193522293Y-39469859D01*
X193517946Y-39488975D01*
X193520712Y-39527895D01*
X193538162Y-39562794D01*
X193567638Y-39588359D01*
X193604654Y-39600697D01*
X193643574Y-39597931D01*
X193678473Y-39580481D01*
X193704038Y-39551005D01*
X193712029Y-39533105D01*
X193759648Y-39390248D01*
X193761847Y-39380575D01*
X193762859Y-39378134D01*
X193763207Y-39374596D01*
X193763995Y-39371133D01*
X193763807Y-39368498D01*
X193764780Y-39358625D01*
X193764780Y-39120530D01*
X193762859Y-39101021D01*
X193761483Y-39097700D01*
X193761229Y-39094117D01*
X193754223Y-39075808D01*
X193706604Y-38980571D01*
X193701318Y-38972174D01*
X193700308Y-38969734D01*
X193698054Y-38966988D01*
X193696161Y-38963980D01*
X193694163Y-38962247D01*
X193687871Y-38954581D01*
X193640253Y-38906962D01*
X193632582Y-38900667D01*
X193630853Y-38898673D01*
X193627845Y-38896779D01*
X193625099Y-38894526D01*
X193622659Y-38893515D01*
X193614263Y-38888230D01*
X193519025Y-38840611D01*
X193500717Y-38833605D01*
X193497133Y-38833350D01*
X193493813Y-38831975D01*
X193474304Y-38830054D01*
X193379066Y-38830054D01*
X193359557Y-38831975D01*
X193356236Y-38833350D01*
X193352653Y-38833605D01*
X193334344Y-38840611D01*
X193239107Y-38888230D01*
X193230710Y-38893515D01*
X193228270Y-38894526D01*
X193225524Y-38896779D01*
X193222516Y-38898673D01*
X193220783Y-38900670D01*
X193213117Y-38906963D01*
X193165498Y-38954581D01*
X193159203Y-38962251D01*
X193157209Y-38963981D01*
X193155315Y-38966988D01*
X193153062Y-38969735D01*
X193152051Y-38972174D01*
X193146766Y-38980571D01*
X193099147Y-39075809D01*
X193098601Y-39077235D01*
X193098171Y-39077816D01*
X193095249Y-39085992D01*
X193092141Y-39094117D01*
X193092089Y-39094839D01*
X193091576Y-39096277D01*
X193046619Y-39276101D01*
X193011166Y-39347008D01*
X192986497Y-39371676D01*
X192926888Y-39401482D01*
X192878864Y-39401482D01*
X192819254Y-39371677D01*
X192794583Y-39347006D01*
X192764780Y-39287399D01*
X192764780Y-39089138D01*
X192807268Y-38961677D01*
X192811615Y-38942562D01*
X192808849Y-38903642D01*
X192791400Y-38868743D01*
X192761924Y-38843178D01*
X192724908Y-38830839D01*
X192685988Y-38833605D01*
X192651089Y-38851054D01*
X192625524Y-38880530D01*
X192617532Y-38898430D01*
X192569912Y-39041288D01*
X192567712Y-39050960D01*
X192566701Y-39053402D01*
X192566352Y-39056939D01*
X192565565Y-39060403D01*
X192565752Y-39063037D01*
X192564780Y-39072911D01*
X192453669Y-39072911D01*
X192453669Y-38718943D01*
X193875891Y-38718943D01*
X193875891Y-41664189D01*
G37*
D12*
X156696580Y-44510833D02*
X156744200Y-44463214D01*
X156744200Y-44463214D02*
X156791819Y-44320357D01*
X156791819Y-44320357D02*
X156791819Y-44225119D01*
X156791819Y-44225119D02*
X156744200Y-44082262D01*
X156744200Y-44082262D02*
X156648961Y-43987024D01*
X156648961Y-43987024D02*
X156553723Y-43939405D01*
X156553723Y-43939405D02*
X156363247Y-43891786D01*
X156363247Y-43891786D02*
X156220390Y-43891786D01*
X156220390Y-43891786D02*
X156029914Y-43939405D01*
X156029914Y-43939405D02*
X155934676Y-43987024D01*
X155934676Y-43987024D02*
X155839438Y-44082262D01*
X155839438Y-44082262D02*
X155791819Y-44225119D01*
X155791819Y-44225119D02*
X155791819Y-44320357D01*
X155791819Y-44320357D02*
X155839438Y-44463214D01*
X155839438Y-44463214D02*
X155887057Y-44510833D01*
X156125152Y-45367976D02*
X156791819Y-45367976D01*
X155744200Y-45129881D02*
X156458485Y-44891786D01*
X156458485Y-44891786D02*
X156458485Y-45510833D01*
X155426580Y-44510833D02*
X155474200Y-44463214D01*
X155474200Y-44463214D02*
X155521819Y-44320357D01*
X155521819Y-44320357D02*
X155521819Y-44225119D01*
X155521819Y-44225119D02*
X155474200Y-44082262D01*
X155474200Y-44082262D02*
X155378961Y-43987024D01*
X155378961Y-43987024D02*
X155283723Y-43939405D01*
X155283723Y-43939405D02*
X155093247Y-43891786D01*
X155093247Y-43891786D02*
X154950390Y-43891786D01*
X154950390Y-43891786D02*
X154759914Y-43939405D01*
X154759914Y-43939405D02*
X154664676Y-43987024D01*
X154664676Y-43987024D02*
X154569438Y-44082262D01*
X154569438Y-44082262D02*
X154521819Y-44225119D01*
X154521819Y-44225119D02*
X154521819Y-44320357D01*
X154521819Y-44320357D02*
X154569438Y-44463214D01*
X154569438Y-44463214D02*
X154617057Y-44510833D01*
X154521819Y-44844167D02*
X154521819Y-45463214D01*
X154521819Y-45463214D02*
X154902771Y-45129881D01*
X154902771Y-45129881D02*
X154902771Y-45272738D01*
X154902771Y-45272738D02*
X154950390Y-45367976D01*
X154950390Y-45367976D02*
X154998009Y-45415595D01*
X154998009Y-45415595D02*
X155093247Y-45463214D01*
X155093247Y-45463214D02*
X155331342Y-45463214D01*
X155331342Y-45463214D02*
X155426580Y-45415595D01*
X155426580Y-45415595D02*
X155474200Y-45367976D01*
X155474200Y-45367976D02*
X155521819Y-45272738D01*
X155521819Y-45272738D02*
X155521819Y-44987024D01*
X155521819Y-44987024D02*
X155474200Y-44891786D01*
X155474200Y-44891786D02*
X155426580Y-44844167D01*
D13*
%TO.C,U2*%
X203723000Y-93980000D02*
G75*
G02*
X202961000Y-93980000I-381000J0D01*
G01*
X202961000Y-93980000D02*
G75*
G02*
X203723000Y-93980000I381000J0D01*
G01*
%TD*%
M02*
