%TF.GenerationSoftware,KiCad,Pcbnew,9.0.0*%
%TF.CreationDate,2026-05-03T15:48:22+02:00*%
%TF.ProjectId,Good_Boy_Limiter,476f6f64-5f42-46f7-995f-4c696d697465,rev?*%
%TF.SameCoordinates,Original*%
%TF.FileFunction,Paste,Top*%
%TF.FilePolarity,Positive*%
%FSLAX46Y46*%
G04 Gerber Fmt 4.6, Leading zero omitted, Abs format (unit mm)*
G04 Created by KiCad (PCBNEW 9.0.0) date 2026-05-03 15:48:22*
%MOMM*%
%LPD*%
G01*
G04 APERTURE LIST*
G04 Aperture macros list*
%AMRoundRect*
0 Rectangle with rounded corners*
0 $1 Rounding radius*
0 $2 $3 $4 $5 $6 $7 $8 $9 X,Y pos of 4 corners*
0 Add a 4 corners polygon primitive as box body*
4,1,4,$2,$3,$4,$5,$6,$7,$8,$9,$2,$3,0*
0 Add four circle primitives for the rounded corners*
1,1,$1+$1,$2,$3*
1,1,$1+$1,$4,$5*
1,1,$1+$1,$6,$7*
1,1,$1+$1,$8,$9*
0 Add four rect primitives between the rounded corners*
20,1,$1+$1,$2,$3,$4,$5,0*
20,1,$1+$1,$4,$5,$6,$7,0*
20,1,$1+$1,$6,$7,$8,$9,0*
20,1,$1+$1,$8,$9,$2,$3,0*%
G04 Aperture macros list end*
%ADD10RoundRect,0.237500X0.237500X-0.250000X0.237500X0.250000X-0.237500X0.250000X-0.237500X-0.250000X0*%
%ADD11RoundRect,0.250000X0.650000X-0.325000X0.650000X0.325000X-0.650000X0.325000X-0.650000X-0.325000X0*%
%ADD12R,0.700000X1.250000*%
%ADD13RoundRect,0.150000X0.512500X0.150000X-0.512500X0.150000X-0.512500X-0.150000X0.512500X-0.150000X0*%
%ADD14RoundRect,0.237500X-0.237500X0.250000X-0.237500X-0.250000X0.237500X-0.250000X0.237500X0.250000X0*%
%ADD15RoundRect,0.250000X-0.325000X-0.450000X0.325000X-0.450000X0.325000X0.450000X-0.325000X0.450000X0*%
%ADD16RoundRect,0.200000X-0.275000X0.200000X-0.275000X-0.200000X0.275000X-0.200000X0.275000X0.200000X0*%
%ADD17RoundRect,0.200000X-0.200000X-0.275000X0.200000X-0.275000X0.200000X0.275000X-0.200000X0.275000X0*%
%ADD18R,1.072000X0.532000*%
%ADD19RoundRect,0.250000X-0.650000X1.500000X-0.650000X-1.500000X0.650000X-1.500000X0.650000X1.500000X0*%
%ADD20RoundRect,0.250000X1.000000X-1.400000X1.000000X1.400000X-1.000000X1.400000X-1.000000X-1.400000X0*%
%ADD21RoundRect,0.250000X-1.100000X0.325000X-1.100000X-0.325000X1.100000X-0.325000X1.100000X0.325000X0*%
%ADD22R,1.000000X1.100000*%
%ADD23R,2.000000X0.700000*%
%ADD24RoundRect,0.237500X0.287500X0.237500X-0.287500X0.237500X-0.287500X-0.237500X0.287500X-0.237500X0*%
%ADD25RoundRect,0.250000X-0.450000X0.325000X-0.450000X-0.325000X0.450000X-0.325000X0.450000X0.325000X0*%
%ADD26RoundRect,0.250000X0.412500X0.650000X-0.412500X0.650000X-0.412500X-0.650000X0.412500X-0.650000X0*%
%ADD27RoundRect,0.250000X-2.000000X1.400000X-2.000000X-1.400000X2.000000X-1.400000X2.000000X1.400000X0*%
%ADD28RoundRect,0.200000X0.275000X-0.200000X0.275000X0.200000X-0.275000X0.200000X-0.275000X-0.200000X0*%
%ADD29RoundRect,0.250000X0.325000X0.650000X-0.325000X0.650000X-0.325000X-0.650000X0.325000X-0.650000X0*%
%ADD30R,0.300000X1.300000*%
%ADD31RoundRect,0.237500X-0.250000X-0.237500X0.250000X-0.237500X0.250000X0.237500X-0.250000X0.237500X0*%
%ADD32R,3.400000X2.500000*%
%ADD33RoundRect,0.250000X-1.000000X-0.900000X1.000000X-0.900000X1.000000X0.900000X-1.000000X0.900000X0*%
%ADD34RoundRect,0.249999X0.850001X1.850001X-0.850001X1.850001X-0.850001X-1.850001X0.850001X-1.850001X0*%
%ADD35RoundRect,0.140000X-0.170000X0.140000X-0.170000X-0.140000X0.170000X-0.140000X0.170000X0.140000X0*%
%ADD36R,8.500000X2.600000*%
%ADD37RoundRect,0.250000X-0.325000X-0.650000X0.325000X-0.650000X0.325000X0.650000X-0.325000X0.650000X0*%
%ADD38RoundRect,0.135000X-0.185000X0.135000X-0.185000X-0.135000X0.185000X-0.135000X0.185000X0.135000X0*%
%ADD39RoundRect,0.225000X0.250000X-0.225000X0.250000X0.225000X-0.250000X0.225000X-0.250000X-0.225000X0*%
%ADD40RoundRect,0.150000X0.587500X0.150000X-0.587500X0.150000X-0.587500X-0.150000X0.587500X-0.150000X0*%
%ADD41R,1.600000X3.500000*%
%ADD42R,12.200000X9.751000*%
%ADD43RoundRect,0.090000X0.090000X-0.139000X0.090000X0.139000X-0.090000X0.139000X-0.090000X-0.139000X0*%
%ADD44RoundRect,0.150000X-0.587500X-0.150000X0.587500X-0.150000X0.587500X0.150000X-0.587500X0.150000X0*%
%ADD45RoundRect,0.135000X0.135000X0.185000X-0.135000X0.185000X-0.135000X-0.185000X0.135000X-0.185000X0*%
%ADD46O,1.865000X0.630000*%
%ADD47R,2.400000X3.300000*%
%ADD48RoundRect,0.250000X0.325000X0.450000X-0.325000X0.450000X-0.325000X-0.450000X0.325000X-0.450000X0*%
%ADD49R,1.000000X0.800000*%
%ADD50RoundRect,0.225000X-0.250000X0.225000X-0.250000X-0.225000X0.250000X-0.225000X0.250000X0.225000X0*%
%ADD51RoundRect,0.090000X-0.139000X-0.090000X0.139000X-0.090000X0.139000X0.090000X-0.139000X0.090000X0*%
%ADD52RoundRect,0.237500X0.250000X0.237500X-0.250000X0.237500X-0.250000X-0.237500X0.250000X-0.237500X0*%
%ADD53R,1.800000X4.800000*%
%ADD54RoundRect,0.140000X0.140000X0.170000X-0.140000X0.170000X-0.140000X-0.170000X0.140000X-0.170000X0*%
%ADD55RoundRect,0.225000X-0.225000X-0.250000X0.225000X-0.250000X0.225000X0.250000X-0.225000X0.250000X0*%
%ADD56RoundRect,0.237500X-0.300000X-0.237500X0.300000X-0.237500X0.300000X0.237500X-0.300000X0.237500X0*%
%ADD57RoundRect,0.237500X0.300000X0.237500X-0.300000X0.237500X-0.300000X-0.237500X0.300000X-0.237500X0*%
%ADD58R,1.300000X0.300000*%
%ADD59R,3.500000X3.500000*%
%ADD60RoundRect,0.155000X-0.155000X0.212500X-0.155000X-0.212500X0.155000X-0.212500X0.155000X0.212500X0*%
%ADD61R,0.900000X0.900000*%
%ADD62R,1.500000X0.900000*%
%ADD63R,0.900000X1.500000*%
%ADD64RoundRect,0.250000X1.500000X0.650000X-1.500000X0.650000X-1.500000X-0.650000X1.500000X-0.650000X0*%
%ADD65RoundRect,0.237500X-0.287500X-0.237500X0.287500X-0.237500X0.287500X0.237500X-0.287500X0.237500X0*%
G04 APERTURE END LIST*
D10*
%TO.C,R4*%
X137061000Y-66351500D03*
X137061000Y-64526500D03*
%TD*%
D11*
%TO.C,C13*%
X153805000Y-85930000D03*
X153805000Y-82980000D03*
%TD*%
D12*
%TO.C,Q4*%
X191720000Y-85040000D03*
X189820000Y-85040000D03*
X190770000Y-87040000D03*
%TD*%
D13*
%TO.C,U4*%
X142367000Y-102656000D03*
X142367000Y-101706000D03*
X142367000Y-100756000D03*
X140092000Y-100756000D03*
X140092000Y-101706000D03*
X140092000Y-102656000D03*
%TD*%
D14*
%TO.C,R32*%
X198120000Y-56237500D03*
X198120000Y-58062500D03*
%TD*%
D15*
%TO.C,D17*%
X141977000Y-40767000D03*
X144027000Y-40767000D03*
%TD*%
D16*
%TO.C,R13*%
X190500000Y-79185000D03*
X190500000Y-80835000D03*
%TD*%
D17*
%TO.C,R14*%
X162370000Y-61722000D03*
X164020000Y-61722000D03*
%TD*%
D10*
%TO.C,R15*%
X137033000Y-77773500D03*
X137033000Y-75948500D03*
%TD*%
D18*
%TO.C,U5*%
X182231000Y-56769000D03*
X182231000Y-57719000D03*
X182231000Y-58669000D03*
X184531000Y-58669000D03*
X184531000Y-57719000D03*
X184531000Y-56769000D03*
%TD*%
D19*
%TO.C,D5*%
X184023000Y-71541000D03*
X184023000Y-76541000D03*
%TD*%
D20*
%TO.C,D2*%
X218850000Y-83820000D03*
X225650000Y-83820000D03*
%TD*%
D21*
%TO.C,Cout1*%
X180594000Y-82931000D03*
X180594000Y-85881000D03*
%TD*%
D22*
%TO.C,SW3*%
X156351000Y-65210000D03*
X151751000Y-65210000D03*
X156351000Y-63610000D03*
X151751000Y-63610000D03*
D23*
X154051000Y-65930000D03*
%TD*%
D24*
%TO.C,R7*%
X141718000Y-105135000D03*
X139968000Y-105135000D03*
%TD*%
D25*
%TO.C,D9*%
X167386000Y-101591000D03*
X167386000Y-103641000D03*
%TD*%
D11*
%TO.C,C14*%
X156599000Y-85930000D03*
X156599000Y-82980000D03*
%TD*%
D26*
%TO.C,C8*%
X185077500Y-63246000D03*
X181952500Y-63246000D03*
%TD*%
D27*
%TO.C,Dsw1*%
X163041000Y-74798000D03*
X154241000Y-74798000D03*
%TD*%
D28*
%TO.C,Rpwr1*%
X198120000Y-73660000D03*
X198120000Y-72010000D03*
%TD*%
D29*
%TO.C,Ctimer1*%
X195785000Y-72390000D03*
X192835000Y-72390000D03*
%TD*%
D10*
%TO.C,R9*%
X178181000Y-60221500D03*
X178181000Y-58396500D03*
%TD*%
D30*
%TO.C,U3*%
X200390000Y-63690000D03*
X199890000Y-63690000D03*
X199390000Y-63690000D03*
X198890000Y-63690000D03*
X198390000Y-63690000D03*
X198390000Y-68390000D03*
X198890000Y-68390000D03*
X199390000Y-68390000D03*
X199890000Y-68390000D03*
X200390000Y-68390000D03*
%TD*%
D31*
%TO.C,R21*%
X161401500Y-90043000D03*
X163226500Y-90043000D03*
%TD*%
D10*
%TO.C,R29*%
X195580000Y-58062500D03*
X195580000Y-56237500D03*
%TD*%
D25*
%TO.C,D18*%
X173736000Y-59935000D03*
X173736000Y-61985000D03*
%TD*%
D10*
%TO.C,R2*%
X137061000Y-52779000D03*
X137061000Y-50954000D03*
%TD*%
D32*
%TO.C,Rsns1*%
X205740000Y-64250000D03*
X205740000Y-58050000D03*
%TD*%
D33*
%TO.C,D10*%
X211210000Y-58420000D03*
X215510000Y-58420000D03*
%TD*%
D34*
%TO.C,L1*%
X184531000Y-49149000D03*
X181231000Y-49149000D03*
%TD*%
D35*
%TO.C,C5*%
X157734000Y-63909000D03*
X157734000Y-64869000D03*
%TD*%
D36*
%TO.C,Cout2*%
X211880000Y-96520000D03*
X226060000Y-96520000D03*
%TD*%
D10*
%TO.C,R1*%
X137061000Y-48969000D03*
X137061000Y-47144000D03*
%TD*%
D37*
%TO.C,Cin1*%
X210615000Y-53340000D03*
X213565000Y-53340000D03*
%TD*%
D10*
%TO.C,R12*%
X137061000Y-62541500D03*
X137061000Y-60716500D03*
%TD*%
D38*
%TO.C,R28*%
X167386000Y-105916000D03*
X167386000Y-106936000D03*
%TD*%
D39*
%TO.C,R22*%
X172947000Y-84481000D03*
X172947000Y-82931000D03*
%TD*%
D10*
%TO.C,R18*%
X137033000Y-86727000D03*
X137033000Y-84902000D03*
%TD*%
D40*
%TO.C,D15*%
X141780500Y-86447000D03*
X141780500Y-84547000D03*
X139905500Y-85497000D03*
%TD*%
D41*
%TO.C,Q1*%
X207010000Y-84100000D03*
X212090000Y-84100000D03*
D42*
X209550000Y-73660000D03*
%TD*%
D10*
%TO.C,R17*%
X137033000Y-90537000D03*
X137033000Y-88712000D03*
%TD*%
D14*
%TO.C,R31*%
X198120000Y-52427500D03*
X198120000Y-54252500D03*
%TD*%
D43*
%TO.C,C12*%
X150368000Y-51359500D03*
X150368000Y-50494500D03*
%TD*%
D44*
%TO.C,D14*%
X139496500Y-76110000D03*
X139496500Y-78010000D03*
X141371500Y-77060000D03*
%TD*%
D45*
%TO.C,R33*%
X198630000Y-102870000D03*
X197610000Y-102870000D03*
%TD*%
D46*
%TO.C,U7*%
X159739000Y-84079000D03*
X159739000Y-85349000D03*
X159739000Y-86609000D03*
X159739000Y-87879000D03*
X165099000Y-87879000D03*
X165099000Y-86609000D03*
X165099000Y-85349000D03*
X165099000Y-84079000D03*
D47*
X162419000Y-85979000D03*
%TD*%
D48*
%TO.C,D19*%
X202955000Y-102870000D03*
X200905000Y-102870000D03*
%TD*%
D40*
%TO.C,D13*%
X141808500Y-65079000D03*
X141808500Y-63179000D03*
X139933500Y-64129000D03*
%TD*%
D49*
%TO.C,Q2*%
X190740000Y-53660000D03*
X190740000Y-55560000D03*
X193040000Y-54610000D03*
%TD*%
D50*
%TO.C,Ca1*%
X174852000Y-82931000D03*
X174852000Y-84481000D03*
%TD*%
D51*
%TO.C,R26*%
X195147500Y-83820000D03*
X196012500Y-83820000D03*
%TD*%
D52*
%TO.C,Rshort1*%
X195222500Y-68580000D03*
X193397500Y-68580000D03*
%TD*%
D53*
%TO.C,C15*%
X155075000Y-90424000D03*
X155075000Y-99204000D03*
%TD*%
D54*
%TO.C,R34*%
X146657000Y-40767000D03*
X145697000Y-40767000D03*
%TD*%
D26*
%TO.C,C7*%
X177992000Y-50843250D03*
X174867000Y-50843250D03*
%TD*%
D50*
%TO.C,Cb1*%
X172947000Y-86419000D03*
X172947000Y-87969000D03*
%TD*%
D16*
%TO.C,R25*%
X190500000Y-49150000D03*
X190500000Y-50800000D03*
%TD*%
D10*
%TO.C,R8*%
X178181000Y-56411500D03*
X178181000Y-54586500D03*
%TD*%
D20*
%TO.C,D11*%
X185420000Y-105410000D03*
X192220000Y-105410000D03*
%TD*%
D43*
%TO.C,C1*%
X150368000Y-43866500D03*
X150368000Y-43001500D03*
%TD*%
D55*
%TO.C,R23*%
X171918000Y-90292000D03*
X173468000Y-90292000D03*
%TD*%
D10*
%TO.C,R16*%
X137033000Y-74067000D03*
X137033000Y-72242000D03*
%TD*%
D56*
%TO.C,Cbs1*%
X182398500Y-54229000D03*
X184123500Y-54229000D03*
%TD*%
D57*
%TO.C,C9*%
X184377500Y-60706000D03*
X182652500Y-60706000D03*
%TD*%
D16*
%TO.C,R5*%
X149987000Y-62421000D03*
X149987000Y-64071000D03*
%TD*%
D50*
%TO.C,Cbst1*%
X167648000Y-83540000D03*
X167648000Y-85090000D03*
%TD*%
D22*
%TO.C,SW4*%
X169940000Y-65210000D03*
X165340000Y-65210000D03*
X169940000Y-63610000D03*
X165340000Y-63610000D03*
D23*
X167640000Y-65930000D03*
%TD*%
D43*
%TO.C,C11*%
X150368000Y-48692500D03*
X150368000Y-47827500D03*
%TD*%
D45*
%TO.C,R19*%
X150370000Y-55118000D03*
X149350000Y-55118000D03*
%TD*%
D39*
%TO.C,R24*%
X169010000Y-91829000D03*
X169010000Y-90279000D03*
%TD*%
D43*
%TO.C,C10*%
X150368000Y-46279500D03*
X150368000Y-45414500D03*
%TD*%
D45*
%TO.C,R20*%
X150370000Y-56515000D03*
X149350000Y-56515000D03*
%TD*%
D58*
%TO.C,USB1*%
X136769000Y-98250000D03*
X136769000Y-99050000D03*
X136769000Y-100350000D03*
X136769000Y-101350000D03*
X136769000Y-101850000D03*
X136769000Y-102850000D03*
X136769000Y-104150000D03*
X136769000Y-104950000D03*
X136769000Y-104650000D03*
X136769000Y-103850000D03*
X136769000Y-103350000D03*
X136769000Y-102350000D03*
X136769000Y-100850000D03*
X136769000Y-99850000D03*
X136769000Y-99350000D03*
X136769000Y-98550000D03*
%TD*%
D45*
%TO.C,R35*%
X174754000Y-64643000D03*
X173734000Y-64643000D03*
%TD*%
D44*
%TO.C,D12*%
X139933500Y-50479000D03*
X139933500Y-52379000D03*
X141808500Y-51429000D03*
%TD*%
D59*
%TO.C,L3*%
X168529000Y-76073000D03*
X178889000Y-76073000D03*
%TD*%
D60*
%TO.C,C6*%
X163957000Y-63821500D03*
X163957000Y-64956500D03*
%TD*%
D61*
%TO.C,U1*%
X158136000Y-46272000D03*
X158136000Y-47672000D03*
X158136000Y-49072000D03*
X159536000Y-46272000D03*
X159536000Y-47672000D03*
X159536000Y-49072000D03*
X160936000Y-46272000D03*
X160936000Y-47672000D03*
X160936000Y-49072000D03*
D62*
X152286000Y-39952000D03*
X152286000Y-41222000D03*
X152286000Y-42492000D03*
X152286000Y-43762000D03*
X152286000Y-45032000D03*
X152286000Y-46302000D03*
X152286000Y-47572000D03*
X152286000Y-48842000D03*
X152286000Y-50112000D03*
X152286000Y-51382000D03*
X152286000Y-52652000D03*
X152286000Y-53922000D03*
X152286000Y-55192000D03*
X152286000Y-56462000D03*
D63*
X154051000Y-57712000D03*
X155321000Y-57712000D03*
X156591000Y-57712000D03*
X157861000Y-57712000D03*
X159131000Y-57712000D03*
X160401000Y-57712000D03*
X161671000Y-57712000D03*
X162941000Y-57712000D03*
X164211000Y-57712000D03*
X165481000Y-57712000D03*
X166751000Y-57712000D03*
X168021000Y-57712000D03*
D62*
X169786000Y-56462000D03*
X169786000Y-55192000D03*
X169786000Y-53922000D03*
X169786000Y-52652000D03*
X169786000Y-51382000D03*
X169786000Y-50112000D03*
X169786000Y-48842000D03*
X169786000Y-47572000D03*
X169786000Y-46302000D03*
X169786000Y-45032000D03*
X169786000Y-43762000D03*
X169786000Y-42492000D03*
X169786000Y-41222000D03*
X169786000Y-39952000D03*
%TD*%
D10*
%TO.C,R30*%
X195580000Y-54252500D03*
X195580000Y-52427500D03*
%TD*%
D64*
%TO.C,D4*%
X183984000Y-67310000D03*
X178984000Y-67310000D03*
%TD*%
D65*
%TO.C,R6*%
X135636000Y-94975000D03*
X137386000Y-94975000D03*
%TD*%
M02*
